<ttFont>
          <CharString index="0">
            hlineto
            -107 callgsubr
            return
          </CharString>
          <CharString index="1">
            vlineto
            9 4 5 8 vhcurveto
            54 -105 callgsubr
            return
          </CharString>
          <CharString index="2">
            18 6 7 17 hvcurveto
            57 176 callsubr
            return
          </CharString>
          <CharString index="3">
            vlineto
            -103 callsubr
            return
          </CharString>
          <CharString index="4">
            9 -85 callgsubr
            vhcurveto
            return
          </CharString>
          <CharString index="5">
            -16 -8 91 callgsubr
            8 -53 callsubr
            return
          </CharString>
          <CharString index="6">
            7 17 -84 callsubr
            return
          </CharString>
          <CharString index="7">
            8 4 -5 -9 hvcurveto
            return
          </CharString>
          <CharString index="8">
            -90 callsubr
            16 8 8 16 -43 callsubr
            15 -8 8 -16 vhcurveto
            return
          </CharString>
          <CharString index="9">
            -96 callsubr
            -123 194 rlineto
            return
          </CharString>
          <CharString index="10">
            hlineto
            -100 callsubr
            return
          </CharString>
          <CharString index="11">
            -44 callgsubr
            -70 callsubr
            -72 vlineto
            29 -38 -69 callgsubr
            return
          </CharString>
          <CharString index="12">
            4 -86 hlineto
            -16 8 -8 15 vhcurveto
            70 -92 callgsubr
            return
          </CharString>
          <CharString index="13">
            400 callgsubr
            138 callgsubr
            hvcurveto
            -19 8 13 -15 24 hhcurveto
            49 hlineto
            15 7 10 13 5 -1 5 -1 5 hvcurveto
            -3 11 -4 12 16 vvcurveto
            34 21 3 33 vhcurveto
            return
          </CharString>
          <CharString index="14">
            7 -1 3 -5 -8 vvcurveto
            return
          </CharString>
          <CharString index="15">
            hlineto
            16 8 8 15 -80 callsubr
            return
          </CharString>
          <CharString index="16">
            hlineto
            -93 callsubr
            return
          </CharString>
          <CharString index="17">
            -2 callgsubr
            23 hlineto
            49 28 -24 -48 hvcurveto
            -30 86 callsubr
            -19 -61 callgsubr
            37 31 callsubr
            42 14 callgsubr
            82 hlineto
            9 -85 callgsubr
            vhcurveto
            303 hlineto
            return
          </CharString>
          <CharString index="18">
            hlineto
            -88 callgsubr
            return
          </CharString>
          <CharString index="19">
            rmoveto
            9 callgsubr
            -46 vlineto
            -16 8 -8 17 vhcurveto
            67 90 callsubr
            52 371 callgsubr
            -102 11 callsubr
            -72 vlineto
            31 -38 -10 callgsubr
            return
          </CharString>
          <CharString index="20">
            -97 callsubr
            -251 vlineto
            -89 callgsubr
            return
          </CharString>
          <CharString index="21">
            hlineto
            -86 callgsubr
            return
          </CharString>
          <CharString index="22">
            -66 callsubr
            -325 118 rmoveto
            -78 callsubr
            return
          </CharString>
          <CharString index="23">
            -43 callsubr
            16 return
          </CharString>
          <CharString index="24">
            -6 7 -18 vhcurveto
            return
          </CharString>
          <CharString index="25">
            19 hlineto
            43 30 17 22 13 hvcurveto
            -51 callgsubr
            return
          </CharString>
          <CharString index="26">
            -8 8 -16 vhcurveto
            return
          </CharString>
          <CharString index="27">
            hvcurveto
            57 -87 callgsubr
            return
          </CharString>
          <CharString index="28">
            -86 callsubr
            4 return
          </CharString>
          <CharString index="29">
            -67 callsubr
            -19 callsubr
            return
          </CharString>
          <CharString index="30">
            hlineto
            416 callgsubr
            return
          </CharString>
          <CharString index="31">
            -4 callsubr
            51 -58 callsubr
            return
          </CharString>
          <CharString index="32">
            -102 callgsubr
            15 15 34 35 14 -14 -47 vhcurveto
            return
          </CharString>
          <CharString index="33">
            412 callgsubr
            -56 vlineto
            -17 8 -53 callsubr
            return
          </CharString>
          <CharString index="34">
            141 63 callgsubr
            -128 -63 callgsubr
            return
          </CharString>
          <CharString index="35">
            84 callgsubr
            181 -104 callsubr
            return
          </CharString>
          <CharString index="36">
            413 hmoveto
            -46 callgsubr
            209 102 callsubr
            -327 92 callgsubr
            return
          </CharString>
          <CharString index="37">
            -132 -55 callgsubr
            return
          </CharString>
          <CharString index="38">
            308 callsubr
            82 0 callsubr
            return
          </CharString>
          <CharString index="39">
            vlineto
            -36 -3 -32 -66 vhcurveto
            -66 hlineto
            -28 callgsubr
            105 hlineto
            95 50 64 97 hvcurveto
            return
          </CharString>
          <CharString index="40">
            -75 callgsubr
            -194 vlineto
            -98 63 -61 97 vhcurveto
            return
          </CharString>
          <CharString index="41">
            83 callgsubr
            -14 hlineto
            196 callsubr
            return
          </CharString>
          <CharString index="42">
            vlineto
            -56 callgsubr
            return
          </CharString>
          <CharString index="43">
            -42 -13 13 45 hvcurveto
            20 vlineto
            25 16 13 20 vhcurveto
            62 281 callsubr
            16 -80 callsubr
            -62 176 callgsubr
            50 vlineto
            26 13 10 18 vhcurveto
            return
          </CharString>
          <CharString index="44">
            39 -6 callgsubr
            16 -8 8 -16 vhcurveto
            return
          </CharString>
          <CharString index="45">
            rmoveto
            -93 callgsubr
            return
          </CharString>
          <CharString index="46">
            vlineto
            -26 callsubr
            56 -104 callsubr
            return
          </CharString>
          <CharString index="47">
            rlineto
            -4 -6 -2 -4 -7 vvcurveto
            -11 8 -5 13 vhcurveto
            88 hlineto
            12 7 5 8 5 hvcurveto
            66 98 rlineto
            5 hlineto
            65 -98 rlineto
            -8 5 7 -5 12 hhcurveto
            88 hlineto
            13 8 5 11 7 -2 4 -4 6 hvcurveto
            return
          </CharString>
          <CharString index="48">
            8 callgsubr
            -74 11 callsubr
            return
          </CharString>
          <CharString index="49">
            -91 callsubr
            -347 -61 callsubr
            return
          </CharString>
          <CharString index="50">
            198 callgsubr
            239 hlineto
            -47 callgsubr
            return
          </CharString>
          <CharString index="51">
            -16 -7 callsubr
            return
          </CharString>
          <CharString index="52">
            rlineto
            -5 3 7 -8 11 hhcurveto
            return
          </CharString>
          <CharString index="53">
            -12 -6 -8 -10 -3 1 -4 2 -3 hvcurveto
            89 -150 rlineto
            -8 5 9 -8 12 hhcurveto
            76 -65 callgsubr
            return
          </CharString>
          <CharString index="54">
            -8 16 vhcurveto
            return
          </CharString>
          <CharString index="55">
            -35 callgsubr
            108 hlineto
            8 4 -5 -9 hvcurveto
            return
          </CharString>
          <CharString index="56">
            16 336 186 rmoveto
            228 callgsubr
            -37 47 callgsubr
            -102 -389 rmoveto
            69 callsubr
            -16 7 -5 14 vhcurveto
            84 398 callsubr
            -231 -29 callgsubr
            return
          </CharString>
          <CharString index="57">
            rlineto
            -3 -4 -2 -4 -4 vvcurveto
            -8 190 callgsubr
            return
          </CharString>
          <CharString index="58">
            8 16 hvcurveto
            return
          </CharString>
          <CharString index="59">
            hlineto
            -31 callgsubr
            return
          </CharString>
          <CharString index="60">
            -9 -4 -5 -8 vhcurveto
            return
          </CharString>
          <CharString index="61">
            86 hlineto
            20 11 -8 -30 hvcurveto
            -21 vlineto
            -28 -11 -9 -20 vhcurveto
            -54 hlineto
            -42 -21 1 41 33 callgsubr
            -4 vlineto
            return
          </CharString>
          <CharString index="62">
            rmoveto
            -102 callsubr
            return
          </CharString>
          <CharString index="63">
            126 callsubr
            4 hlineto
            71 47 53 78 hvcurveto
            139 -104 callsubr
            243 106 callgsubr
            -91 44 -65 100 vhcurveto
            20 hlineto
            32 2 28 11 14 22 rrcurveto
            return
          </CharString>
          <CharString index="64">
            hvcurveto
            57 vlineto
            return
          </CharString>
          <CharString index="65">
            58 394 643 rmoveto
            -22 callgsubr
            -453 186 callgsubr
            -69 112 callgsubr
            453 -48 callgsubr
            -459 6 callsubr
            110 hlineto
            296 callsubr
            460 vlineto
            15 434 callgsubr
            return
          </CharString>
          <CharString index="66">
            -77 -19 36 57 hvcurveto
            13 -52 callgsubr
            return
          </CharString>
          <CharString index="67">
            -9 8 11 -6 15 hhcurveto
            49 hlineto
            15 7 10 13 7 -2 7 -2 9 hvcurveto
            -2 9 return
          </CharString>
          <CharString index="68">
            hlineto
            -64 callsubr
            return
          </CharString>
          <CharString index="69">
            4 230 callgsubr
            -17 vhcurveto
            -62 hlineto
            -14 297 callgsubr
            -4 330 callgsubr
            return
          </CharString>
          <CharString index="70">
            -48 callsubr
            -70 hlineto
            -17 -7 -8 -16 hvcurveto
            return
          </CharString>
          <CharString index="71">
            145 callsubr
            151 callgsubr
            133 -97 callsubr
            return
          </CharString>
          <CharString index="72">
            339 rmoveto
            -7 -4 3 8 hvcurveto
            172 vlineto
            8 4 3 7 vhcurveto
            98 hlineto
            43 19 -17 -42 hvcurveto
            -78 vlineto
            -40 -19 -17 -43 vhcurveto
            -130 -339 313 callsubr
            205 32 callgsubr
            67 hlineto
            100 -216 rlineto
            -17 7 9 -4 23 hhcurveto
            81 hlineto
            14 12 7 17 -9 hvcurveto
            -107 223 rlineto
            4 vlineto
            57 24 32 51 75 vvcurveto
            78 vlineto
            104 -62 60 -104 vhcurveto
            -238 92 callgsubr
            return
          </CharString>
          <CharString index="73">
            623 -62 callsubr
            return
          </CharString>
          <CharString index="74">
            -6 -34 callsubr
            return
          </CharString>
          <CharString index="75">
            -8 -4 5 9 347 callgsubr
            return
          </CharString>
          <CharString index="76">
            hlineto
            -95 callgsubr
            67 hlineto
            16 8 6 17 hvcurveto
            return
          </CharString>
          <CharString index="77">
            14 11 5 27 25 vvcurveto
            98 -53 48 -105 -104 -54 -52 -93 -34 12 -26 18 -14 vhcurveto
            -4 vlineto
            -61 -19 -23 -47 -84 vvcurveto
            -25 429 callgsubr
            13 86 callgsubr
            217 vlineto
            17 -8 6 -16 vhcurveto
            -67 228 callsubr
            -17 hvcurveto
            -27 vlineto
            -32 -18 -16 -27 vhcurveto
            -16 117 callgsubr
            24 vlineto
            46 15 16 47 vhcurveto
            return
          </CharString>
          <CharString index="78">
            hlineto
            -72 callsubr
            return
          </CharString>
          <CharString index="79">
            -17 -7 -8 -15 hvcurveto
            -57 314 callsubr
            return
          </CharString>
          <CharString index="80">
            -101 60 rlineto
            -22 12 -21 13 20 vvcurveto
            5 vlineto
            16 18 9 31 vhcurveto
            139 hlineto
            16 4 5 15 hvcurveto
            65 vlineto
            14 -5 7 -15 vhcurveto
            -167 hlineto
            -105 -48 -42 -94 -66 35 -34 64 -33 hvcurveto
            99 -55 rlineto
            24 -13 17 -15 -18 vvcurveto
            -5 vlineto
            -21 -19 -9 -30 vhcurveto
            -167 hlineto
            -16 -4 -5 -15 hvcurveto
            -64 vlineto
            -14 5 -7 15 vhcurveto
            return
          </CharString>
          <CharString index="81">
            -60 callgsubr
            6 17 hvcurveto
            return
          </CharString>
          <CharString index="82">
            -8 -4 5 9 hvcurveto
            return
          </CharString>
          <CharString index="83">
            16 8 8 15 hvcurveto
            53 19 callgsubr
            return
          </CharString>
          <CharString index="84">
            31 14 16 33 vhcurveto
            22 hlineto
            16 8 8 14 256 callsubr
            -32 hlineto
            -23 -14 13 23 hvcurveto
            71 vlineto
            31 16 18 32 vhcurveto
            153 hlineto
            9 -1 4 -3 -9 vvcurveto
            -65 vlineto
            -12 -2 -11 -3 -10 vhcurveto
            -39 335 callsubr
            32 hlineto
            16 10 -11 -14 hvcurveto
            return
          </CharString>
          <CharString index="85">
            hlineto
            16 8 6 17 hvcurveto
            58 6 callgsubr
            return
          </CharString>
          <CharString index="86">
            18 callsubr
            -280 4 callsubr
            -57 vlineto
            -16 7 -7 17 vhcurveto
            87 return
          </CharString>
          <CharString index="87">
            -5 callsubr
            139 2 callgsubr
            90 vlineto
            9 -85 callgsubr
            vhcurveto
            return
          </CharString>
          <CharString index="88">
            16 -39 callgsubr
            8 16 hvcurveto
            return
          </CharString>
          <CharString index="89">
            -41 callsubr
            -118 4 callsubr
            -93 vlineto
            return
          </CharString>
          <CharString index="90">
            127 callgsubr
            -275 69 callgsubr
            return
          </CharString>
          <CharString index="91">
            -16 25 callgsubr
            return
          </CharString>
          <CharString index="92">
            vlineto
            -16 callsubr
            return
          </CharString>
          <CharString index="93">
            66 400 rmoveto
            8 3 -3 -8 hvcurveto
            -227 vlineto
            -105 62 -57 104 vhcurveto
            61 218 callsubr
            -5 7 -16 vhcurveto
            -40 hlineto
            -43 -17 17 41 hvcurveto
            221 32 callgsubr
            78 218 callsubr
            -5 7 -16 vhcurveto
            -78 hlineto
            -8 -4 3 8 hvcurveto
            95 vlineto
            15 412 callsubr
            -84 hlineto
            -14 -8 -6 -15 hvcurveto
            -95 vlineto
            -8 -3 -3 -8 vhcurveto
            -40 122 callsubr
            -69 vlineto
            -15 4 -5 17 vhcurveto
            return
          </CharString>
          <CharString index="94">
            118 -62 callsubr
            return
          </CharString>
          <CharString index="95">
            -5 callgsubr
            -28 vlineto
            return
          </CharString>
          <CharString index="96">
            434 callsubr
            -1 -5 vhcurveto
            -149 133 rlineto
            3 9 11 2 13 hhcurveto
            -34 callgsubr
            return
          </CharString>
          <CharString index="97">
            -6 -26 callgsubr
            return
          </CharString>
          <CharString index="98">
            vlineto
            29 -38 -7 callgsubr
            return
          </CharString>
          <CharString index="99">
            87 callgsubr
            -15 vlineto
            -39 -15 -14 return
          </CharString>
          <CharString index="100">
            hvcurveto
            -57 vlineto
            return
          </CharString>
          <CharString index="101">
            318 callgsubr
            13 vhcurveto
            80 hlineto
            13 6 146 callgsubr
            -7 5 -12 110 callgsubr
            -190 -88 318 callgsubr
            13 vhcurveto
            80 hlineto
            13 6 146 callgsubr
            -7 418 callsubr
          </CharString>
          <CharString index="102">
            -46 callsubr
            -112 65 -31 95 vhcurveto
            85 290 callsubr
            -2 callsubr
            return
          </CharString>
          <CharString index="103">
            -16 -8 -8 -14 hvcurveto
            -58 vlineto
            -16 8 -53 callsubr
            return
          </CharString>
          <CharString index="104">
            vlineto
            -100 callsubr
            return
          </CharString>
          <CharString index="105">
            44 vlineto
            78 -50 40 -80 vhcurveto
            -95 hlineto
            -20 -11 3 30 hvcurveto
            4 vlineto
            28 11 4 20 vhcurveto
            return
          </CharString>
          <CharString index="106">
            -39 callsubr
            6 -105 callgsubr
            return
          </CharString>
          <CharString index="107">
            hlineto
            -103 callsubr
            return
          </CharString>
          <CharString index="108">
            vlineto
            -42 16 -26 38 -13 vhcurveto
            -4 vlineto
            159 callsubr
            return
          </CharString>
          <CharString index="109">
            12 callgsubr
            306 97 callsubr
            return
          </CharString>
          <CharString index="110">
            23 callsubr
            48 hlineto
            return
          </CharString>
          <CharString index="111">
            hlineto
            -17 -7 -8 -16 hvcurveto
            return
          </CharString>
          <CharString index="112">
            -6 623 rmoveto
            -96 callgsubr
            return
          </CharString>
          <CharString index="113">
            vlineto
            34 callsubr
            return
          </CharString>
          <CharString index="114">
            2 callgsubr
            90 -104 callsubr
            return
          </CharString>
          <CharString index="115">
            -50 callsubr
            83 hlineto
            13 return
          </CharString>
          <CharString index="116">
            vlineto
            37 -18 22 -17 8 vhcurveto
            5 124 -3 callsubr
            return
          </CharString>
          <CharString index="117">
            40 callsubr
            hvcurveto
            return
          </CharString>
          <CharString index="118">
            hlineto
            -18 -12 -12 -17 hvcurveto
            return
          </CharString>
          <CharString index="119">
            -22 callsubr
            endchar
          </CharString>
          <CharString index="120">
            77 callsubr
            -50 421 callgsubr
            -50 186 callsubr
            50 185 callsubr
            return
          </CharString>
          <CharString index="121">
            98 callsubr
            99 callgsubr
            return
          </CharString>
          <CharString index="122">
            -4 vlineto
            -28 -12 -29 -23 -77 -76 callgsubr
            49 -22 callsubr
            return
          </CharString>
          <CharString index="123">
            83 169 hmoveto
            22 callsubr
            return
          </CharString>
          <CharString index="124">
            118 -45 callsubr
            return
          </CharString>
          <CharString index="125">
            244 callsubr
            50 -92 callsubr
            return
          </CharString>
          <CharString index="126">
            15 -8 7 -14 vhcurveto
            return
          </CharString>
          <CharString index="127">
            58 callsubr
            -3 -6 3 -8 hhcurveto
            -59 126 callgsubr
          </CharString>
          <CharString index="128">
            vlineto
            -2 callgsubr
            return
          </CharString>
          <CharString index="129">
            10 callsubr
            371 4 vlineto
            200 -372 rlineto
            -1 1 9 -19 22 hhcurveto
            73 192 callgsubr
            -83 hlineto
            -22 callgsubr
            -372 -4 vlineto
            -202 379 rlineto
            2 -1 -7 12 -20 hhcurveto
            -75 92 callgsubr
            return
          </CharString>
          <CharString index="130">
            -75 callgsubr
            -210 vlineto
            -98 63 -61 97 vhcurveto
            return
          </CharString>
          <CharString index="131">
            hlineto
            13 callgsubr
            return
          </CharString>
          <CharString index="132">
            43 326 hmoveto
            360 callsubr
            167 169 callsubr
            -15 vhcurveto
            -175 122 callsubr
            -68 349 callsubr
            60 hlineto
            8 3 -3 -8 hvcurveto
            -63 366 callsubr
            -65 112 callgsubr
            305 vlineto
            42 16 17 42 vhcurveto
            65 hlineto
            43 15 -17 -42 hvcurveto
            -24 vlineto
            -16 7 -6 313 callgsubr
            6 16 hvcurveto
            30 391 callsubr
            -106 27 callgsubr
            return
          </CharString>
          <CharString index="133">
            rmoveto
            -40 -21 -23 -43 vhcurveto
            -23 hlineto
            -49 -28 24 48 hvcurveto
            30 vlineto
            48 24 24 49 vhcurveto
            19 -92 callsubr
            -37 hlineto
            return
          </CharString>
          <CharString index="134">
            327 -66 callsubr
            return
          </CharString>
          <CharString index="135">
            95 callgsubr
            8 8 217 callgsubr
            return
          </CharString>
          <CharString index="136">
            hlineto
            -16 -8 -8 -16 hvcurveto
            return
          </CharString>
          <CharString index="137">
            333 callgsubr
            272 vlineto
            -90 callsubr
            18 6 -101 callsubr
            -6 7 -18 vhcurveto
            -762 97 callgsubr
            -63 36 -71 82 vhcurveto
            12 -4 hlineto
            10 callgsubr
            160 176 rlineto
            4 hlineto
            -93 66 184 callgsubr
          </CharString>
          <CharString index="138">
            hlineto
            110 59 64 106 1 hvcurveto
            return
          </CharString>
          <CharString index="139">
            32 hvcurveto
            138 2 callgsubr
            86 -104 callsubr
            return
          </CharString>
          <CharString index="140">
            vlineto
            28 -12 18 -21 8 vhcurveto
            return
          </CharString>
          <CharString index="141">
            -105 172 callsubr
            return
          </CharString>
          <CharString index="142">
            vlineto
            345 callgsubr
            return
          </CharString>
          <CharString index="143">
            -153 213 callgsubr
            301 vlineto
            44 14 34 55 vhcurveto
            69 hlineto
            15 -2 5 7 15 vvcurveto
            69 vlineto
            14 -5 7 -15 vhcurveto
            -36 hlineto
            -37 -46 -17 -38 -15 hvcurveto
            -4 34 48 callgsubr
            return
          </CharString>
          <CharString index="144">
            20 10 -7 -20 hvcurveto
            -38 vlineto
            -21 -6 -11 -24 vhcurveto
            -73 hlineto
            -27 -18 10 32 hvcurveto
            4 vlineto
            17 -8 6 -16 vhcurveto
            -67 228 callsubr
            -17 hvcurveto
            -188 36 callgsubr
            69 4 vlineto
            -18 9 20 -10 33 hhcurveto
            69 224 callsubr
            48 vlineto
            78 -50 40 -80 vhcurveto
            -101 hlineto
            315 callsubr
            4 vlineto
            21 6 11 24 vhcurveto
            145 2 callgsubr
            return
          </CharString>
          <CharString index="145">
            -26 callgsubr
            330 -87 callsubr
            return
          </CharString>
          <CharString index="146">
            86 vlineto
            50 -14 37 -30 21 vhcurveto
            20 15 17 26 38 vvcurveto
            43 vlineto
            9 5 3 9 vhcurveto
            43 hlineto
            200 callgsubr
            56 382 callsubr
          </CharString>
          <CharString index="147">
            14 7 5 16 return
          </CharString>
          <CharString index="148">
            rmoveto
            42 callgsubr
            return
          </CharString>
          <CharString index="149">
            138 -169 rmoveto
            110 55 63 106 28 hvcurveto
            122 488 rlineto
            14 3 -8 8 -15 hhcurveto
            -84 hlineto
            -13 -9 -6 -15 -3 hvcurveto
            -85 -369 rlineto
            -4 hlineto
            -86 369 rlineto
            16 -4 -8 5 -13 hhcurveto
            -89 hlineto
            -14 -5 -7 -14 4 hvcurveto
            117 -441 rlineto
            -14 4 6 -7 15 hhcurveto
            53 hlineto
            -63 -15 -17 -22 -88 hhcurveto
            -21 hlineto
            -15 -5 -8 -14 hvcurveto
            -67 vlineto
            -14 5 -8 15 vhcurveto
            return
          </CharString>
          <CharString index="150">
            -17 -16 -7 -56 callsubr
            -17 16 -7 17 vhcurveto
            37 -97 callsubr
            -161 139 callsubr
            108 103 callgsubr
            return
          </CharString>
          <CharString index="151">
            hlineto
            -26 -10 11 23 hvcurveto
            10 vlineto
            22 -10 9 -16 vhcurveto
            -49 hlineto
            -20 -9 -12 -22 hvcurveto
            -8 vlineto
            -80 41 -48 77 vhcurveto
            return
          </CharString>
          <CharString index="152">
            12 callgsubr
            274 252 callsubr
            -116 -55 -65 -103 hvcurveto
            -67 vlineto
            -72 27 -55 56 -27 vhcurveto
            -79 -106 225 callsubr
            102 rlineto
            56 23 30 50 79 vvcurveto
            298 callgsubr
            70 vlineto
            48 23 17 49 vhcurveto
            113 2 callgsubr
            115 -104 callsubr
            64 -77 callsubr
            endchar
          </CharString>
          <CharString index="153">
            hlineto
            -32 callgsubr
            -17 -68 callsubr
            36 33 callsubr
            4 return
          </CharString>
          <CharString index="154">
            rlineto
            13 -8 -10 5 -14 hhcurveto
            -81 hlineto
            -12 -7 -9 -10 -6 2 -6 4 -6 hvcurveto
            52 -79 return
          </CharString>
          <CharString index="155">
            -30 hlineto
            50 callsubr
          </CharString>
          <CharString index="156">
            rmoveto
            54 callgsubr
            return
          </CharString>
          <CharString index="157">
            -80 callgsubr
            endchar
          </CharString>
          <CharString index="158">
            37 16 -13 -12 10 hvcurveto
            -9 8 5 -8 9 144 callgsubr
            -18 132 callsubr
            92 hlineto
            9 -85 callgsubr
            vhcurveto
            return
          </CharString>
          <CharString index="159">
            240 callgsubr
            86 hlineto
            15 5 4 17 hvcurveto
            468 233 callgsubr
            -86 hlineto
            -14 -6 -5 -16 hvcurveto
            return
          </CharString>
          <CharString index="160">
            217 callsubr
            -5 -5 -7 vhcurveto
            -80 hlineto
            return
          </CharString>
          <CharString index="161">
            rmoveto
            163 callgsubr
            8 1 8 1 7 vhcurveto
            154 -137 rlineto
            -4 -11 -12 -3 -15 hhcurveto
            return
          </CharString>
          <CharString index="162">
            180 callsubr
            -62 hlineto
            -17 -8 -10 -19 return
          </CharString>
          <CharString index="163">
            rmoveto
            59 callsubr
            return
          </CharString>
          <CharString index="164">
            rmoveto
            -38 -13 12 45 hvcurveto
            55 vlineto
            159 -112 rlineto
            -3 hlineto
            1 182 rmoveto
            95 callsubr
            -95 vlineto
            -157 109 rlineto
            1 hlineto
            -185 104 12 callgsubr
            51 136 callsubr
            -4 vlineto
            350 callgsubr
            -31 vlineto
            return
          </CharString>
          <CharString index="165">
            rmoveto
            65 hlineto
            11 6 4 7 5 hvcurveto
            63 105 rlineto
            7 4 -2 6 -10 413 callsubr
            -5 433 callgsubr
            -32 -66 -33 66 rlineto
            9 return
          </CharString>
          <CharString index="166">
            16 -7 5 -14 vhcurveto
            -85 92 callgsubr
            85 hlineto
            40 callsubr
            hvcurveto
            return
          </CharString>
          <CharString index="167">
            18 hlineto
            104 58 56 105 hvcurveto
            199 -104 callsubr
            return
          </CharString>
          <CharString index="168">
            -97 callsubr
            -258 vlineto
            -40 -21 -23 -43 vhcurveto
            -23 hlineto
            -49 -28 24 48 hvcurveto
            30 vlineto
            48 24 24 49 vhcurveto
            19 -92 callsubr
            -37 hlineto
            -41 -33 -9 -16 -27 hvcurveto
            return
          </CharString>
          <CharString index="169">
            rmoveto
            14 -7 92 callsubr
            return
          </CharString>
          <CharString index="170">
            hlineto
            -73 callgsubr
            return
          </CharString>
          <CharString index="171">
            -7 623 rmoveto
            -15 -8 -7 -16 hvcurveto
            -57 138 callsubr
            15 vhcurveto
            328 hlineto
            226 callgsubr
            50 25 -27 -44 hvcurveto
            -6 108 callsubr
            141 114 rlineto
            -104 vlineto
            -26 callsubr
            192 vlineto
            173 137 rlineto
            -60 vlineto
            -9 -3 -4 -9 -1 vhcurveto
            -61 -8 -28 -46 -59 vvcurveto
            return
          </CharString>
          <CharString index="172">
            hlineto
            -77 callgsubr
            return
          </CharString>
          <CharString index="173">
            286 -94 callgsubr
            return
          </CharString>
          <CharString index="174">
            -53 415 287 callgsubr
            8 -15 vhcurveto
            -211 hlineto
            -8 -4 3 8 hvcurveto
            500 94 callsubr
            return
          </CharString>
          <CharString index="175">
            74 callgsubr
            38 64 hvcurveto
            return
          </CharString>
          <CharString index="176">
            37 45 15 39 16 hvcurveto
            4 -33 hlineto
            return
          </CharString>
          <CharString index="177">
            15 301 109 callsubr
            214 vlineto
            183 386 rlineto
            13 7 -8 9 -13 hhcurveto
            -106 hlineto
            -13 -6 -6 -15 -5 hvcurveto
            -98 -243 rlineto
            -7 hlineto
            -100 243 rlineto
            15 -6 -5 6 -13 hhcurveto
            -106 hlineto
            -11 -9 -9 -13 6 hvcurveto
            183 -386 rlineto
            -214 -15 callsubr
            return
          </CharString>
          <CharString index="178">
            431 callgsubr
            172 vlineto
            42 15 17 43 vhcurveto
            return
          </CharString>
          <CharString index="179">
            195 callgsubr
            -46 hlineto
            -26 callsubr
            482 -104 callsubr
            56 208 callgsubr
            56 vlineto
            17 -83 callsubr
            endchar
          </CharString>
          <CharString index="180">
            rmoveto
            -52 -30 -68 -87 vhcurveto
            -8 hlineto
            -63 -33 11 49 hvcurveto
            4 hlineto
            82 70 31 106 101 -70 return
          </CharString>
          <CharString index="181">
            48 24 22 49 vhcurveto
            89 -97 callsubr
            return
          </CharString>
          <CharString index="182">
            -91 380 89 rmoveto
            296 callgsubr
            -129 112 callgsubr
            172 vlineto
            42 16 17 42 vhcurveto
            129 218 callsubr
            -6 7 -15 vhcurveto
            -149 -29 callgsubr
            149 hlineto
            200 callsubr
            return
          </CharString>
          <CharString index="183">
            -43 -27 callgsubr
            return
          </CharString>
          <CharString index="184">
            rmoveto
            19 callsubr
            return
          </CharString>
          <CharString index="185">
            hlineto
            71 callsubr
            return
          </CharString>
          <CharString index="186">
            318 callgsubr
            249 callgsubr
            7 146 callgsubr
            -8 5 -12 110 callgsubr
            return
          </CharString>
          <CharString index="187">
            18 9 hvcurveto
            4 -69 -31 callsubr
            return
          </CharString>
          <CharString index="188">
            4 -169 hlineto
            -60 callgsubr
            return
          </CharString>
          <CharString index="189">
            rmoveto
            37 45 16 39 16 hvcurveto
            4 -76 hlineto
            -41 -16 -17 -43 vhcurveto
            -171 122 callsubr
            -69 vlineto
            -15 5 -5 16 vhcurveto
            192 hlineto
            104 61 58 104 hvcurveto
            493 154 callsubr
            -231 185 callgsubr
            -161 243 callsubr
            return
          </CharString>
          <CharString index="190">
            vhcurveto
            -4 -2 -133 238 rlineto
            13 -7 -11 7 -25 hhcurveto
            -65 hlineto
            -13 -7 -9 -10 -6 2 -6 4 -6 hvcurveto
            55 -79 29 -41 56 -68 return
          </CharString>
          <CharString index="191">
            293 callgsubr
            -15 hlineto
            48 -16 -37 30 -60 hhcurveto
            -118 hlineto
            -73 -51 -48 235 callgsubr
            -40 -9 callsubr
            return
          </CharString>
          <CharString index="192">
            103 callgsubr
            -13 29 callsubr
            -56 vlineto
            -16 8 -53 callsubr
            return
          </CharString>
          <CharString index="193">
            vlineto
            118 callgsubr
            return
          </CharString>
          <CharString index="194">
            rmoveto
            -57 callsubr
            -1 5 6 vvcurveto
            return
          </CharString>
          <CharString index="195">
            137 callsubr
            64 hlineto
            12 253 callgsubr
            return
          </CharString>
          <CharString index="196">
            -18 callgsubr
            -97 hlineto
            -109 return
          </CharString>
          <CharString index="197">
            hlineto
            15 -78 callgsubr
            return
          </CharString>
          <CharString index="198">
            343 callsubr
            26 -21 callsubr
            return
          </CharString>
          <CharString index="199">
            5 -12 vhcurveto
            -73 105 callsubr
            -166 vlineto
            -15 return
          </CharString>
          <CharString index="200">
            -25 callsubr
            88 204 callsubr
            -270 -61 callsubr
            return
          </CharString>
          <CharString index="201">
            vlineto
            16 -7 5 -14 vhcurveto
            -85 92 callgsubr
            return
          </CharString>
          <CharString index="202">
            7 4 -6 -8 hvcurveto
            return
          </CharString>
          <CharString index="203">
            247 26 callsubr
            return
          </CharString>
          <CharString index="204">
            67 callgsubr
            -66 vlineto
            return
          </CharString>
          <CharString index="205">
            -25 callsubr
            108 85 callsubr
            return
          </CharString>
          <CharString index="206">
            61 -61 109 vhcurveto
            return
          </CharString>
          <CharString index="207">
            240 callsubr
            -66 429 callgsubr
            43 86 callgsubr
            237 -91 callgsubr
            return
          </CharString>
          <CharString index="208">
            hlineto
            -26 callsubr
            482 -104 callsubr
            53 -105 callgsubr
            endchar
          </CharString>
          <CharString index="209">
            hlineto
            29 callgsubr
            return
          </CharString>
          <CharString index="210">
            -109 -64 -61 -109 hvcurveto
            return
          </CharString>
          <CharString index="211">
            hlineto
            95 callsubr
            return
          </CharString>
          <CharString index="212">
            hlineto
            -13 -6 -6 -14 hvcurveto
            return
          </CharString>
          <CharString index="213">
            -4 hlineto
            -17 -7 -11 -16 -25 vvcurveto
            -86 vlineto
            -35 20 -29 35 -6 vhcurveto
            -4 return
          </CharString>
          <CharString index="214">
            160 callgsubr
            31 224 callsubr
            41 vlineto
            81 -50 40 -80 vhcurveto
            -50 277 callgsubr
            return
          </CharString>
          <CharString index="215">
            vlineto
            -89 -63 -185 -147 rlineto
            -9 -7 -4 -7 -10 vvcurveto
            -10 190 callgsubr
            96 hlineto
            19 8 6 7 9 hvcurveto
            return
          </CharString>
          <CharString index="216">
            hmoveto
            10 callsubr
            return
          </CharString>
          <CharString index="217">
            344 186 rmoveto
            228 callgsubr
            -45 78 callsubr
            45 hlineto
            55 14 -33 -43 hvcurveto
            -102 -324 rmoveto
            69 callsubr
            345 callgsubr
            661 -48 callgsubr
            -226 -4 vlineto
            39 -16 -45 15 -37 hhcurveto
            -41 hlineto
            -104 -52 -58 -105 hvcurveto
            -184 243 callsubr
            return
          </CharString>
          <CharString index="218">
            153 callgsubr
            43 hlineto
            33 21 13 18 9 hvcurveto
            134 callgsubr
          </CharString>
          <CharString index="219">
            rmoveto
            -47 callsubr
            return
          </CharString>
          <CharString index="220">
            141 callsubr
            -95 280 rmoveto
            return
          </CharString>
          <CharString index="221">
            vlineto
            78 -50 40 -80 vhcurveto
            -123 hlineto
            -20 -11 4 26 25 11 4 20 hvcurveto
            157 2 callgsubr
            80 -104 callsubr
            74 12 callsubr
          </CharString>
          <CharString index="222">
            vlineto
            91 -70 37 -82 -80 -60 -48 -68 vhcurveto
            return
          </CharString>
          <CharString index="223">
            104 callsubr
            -53 199 callgsubr
            return
          </CharString>
          <CharString index="224">
            148 callgsubr
            vhcurveto
            return
          </CharString>
          <CharString index="225">
            219 callgsubr
            -20 callsubr
            return
          </CharString>
          <CharString index="226">
            -103 callgsubr
            271 21 callsubr
            return
          </CharString>
          <CharString index="227">
            hhcurveto
            43 hlineto
            33 21 13 18 9 hvcurveto
            134 callgsubr
          </CharString>
          <CharString index="228">
            hhcurveto
            88 callgsubr
            return
          </CharString>
          <CharString index="229">
            hlineto
            181 callgsubr
            return
          </CharString>
          <CharString index="230">
            196 callgsubr
            -8 1 callsubr
            -4 vlineto
            -98 54 -54 107 vhcurveto
            63 hlineto
            return
          </CharString>
          <CharString index="231">
            595 rmoveto
            15 6 8 14 hvcurveto
            44 330 callsubr
            -197 122 callsubr
            -44 383 callsubr
          </CharString>
          <CharString index="232">
            7 4 7 5 hvcurveto
            62 105 rlineto
            7 4 -2 6 -9 hhcurveto
            -60 hlineto
            -8 -6 -3 -9 return
          </CharString>
          <CharString index="233">
            vlineto
            29 -38 4 callgsubr
            77 -65 callgsubr
            -124 196 rlineto
            return
          </CharString>
          <CharString index="234">
            85 153 callsubr
            return
          </CharString>
          <CharString index="235">
            hlineto
            43 16 -17 -42 hvcurveto
            return
          </CharString>
          <CharString index="236">
            -49 -18 -16 -50 vhcurveto
            -94 hlineto
            -46 -20 12 43 hvcurveto
            return
          </CharString>
          <CharString index="237">
            rmoveto
            59 48 31 46 25 hvcurveto
            1 2 2 5 5 vvcurveto
            10 -5 7 -11 8 vhcurveto
            -23 18 rlineto
            8 -10 -4 1 -5 hhcurveto
            -7 -4 -4 -6 -5 hvcurveto
            220 callgsubr
            return
          </CharString>
          <CharString index="238">
            hlineto
            -14 -9 -8 -17 hvcurveto
            -55 vlineto
            -16 8 -53 callsubr
            return
          </CharString>
          <CharString index="239">
            hlineto
            76 callsubr
            return
          </CharString>
          <CharString index="240">
            hlineto
            127 56 65 100 hvcurveto
            return
          </CharString>
          <CharString index="241">
            rmoveto
            322 callgsubr
            45 vlineto
            14 -5 7 -15 vhcurveto
            -198 hlineto
            -15 234 callsubr
            -45 383 callgsubr
          </CharString>
          <CharString index="242">
            109 callsubr
            661 vlineto
            206 callsubr
            return
          </CharString>
          <CharString index="243">
            -91 callsubr
            -117 vlineto
            -38 14 -25 25 -15 vhcurveto
            return
          </CharString>
          <CharString index="244">
            55 callgsubr
            4 -6 13 hhcurveto
            return
          </CharString>
          <CharString index="245">
            vlineto
            -17 8 -7 return
          </CharString>
          <CharString index="246">
            vlineto
            333 callsubr
            return
          </CharString>
          <CharString index="247">
            242 callgsubr
            -76 28 -56 61 -24 vhcurveto
            -25 vlineto
            -48 -21 -21 -49 vhcurveto
            -5 29 callsubr
            -59 vlineto
            -16 8 -53 callsubr
            25 hlineto
            109 58 61 110 hvcurveto
            17 return
          </CharString>
          <CharString index="248">
            -266 rmoveto
            50 callgsubr
            return
          </CharString>
          <CharString index="249">
            -5 10 7 6 359 callgsubr
            17 302 callgsubr
          </CharString>
          <CharString index="250">
            -72 callgsubr
            49 12 callsubr
          </CharString>
          <CharString index="251">
            0 -33 -12 -36 -41 vhcurveto
            -46 -53 8 callsubr
            8 4 6 6 hvcurveto
            return
          </CharString>
          <CharString index="252">
            327 83 callgsubr
            return
          </CharString>
          <CharString index="253">
            650 rmoveto
            431 callsubr
            19 5 30 21 vhcurveto
            23 18 -85 callgsubr
            hhcurveto
            11 4 -5 -32 hvcurveto
            -9 vlineto
            -10 2 -3 9 vhcurveto
            39 hlineto
            8 2 3 10 hvcurveto
            37 vlineto
            40 -16 36 -55 -24 -17 -6 263 callgsubr
            11 vlineto
            10 390 callgsubr
            -3 -2 -10 hvcurveto
            endchar
          </CharString>
          <CharString index="254">
            -8 -56 callsubr
            return
          </CharString>
          <CharString index="255">
            -502 -153 752 rmoveto
            -68 123 47 callsubr
            36 -55 48 -58 88 -88 rlinecurve
            74 47 hlineto
            220 callsubr
            -34 hlineto
            -82 -57 -41 -90 hvcurveto
            -10 vlineto
            return
          </CharString>
          <CharString index="256">
            rmoveto
            -47 -14 -27 -45 vhcurveto
            -6 hlineto
            -45 -14 27 47 hvcurveto
            53 vlineto
            47 14 27 45 vhcurveto
            6 hlineto
            45 14 -27 -47 hvcurveto
            return
          </CharString>
          <CharString index="257">
            8 callsubr
            8 4 6 6 hvcurveto
            15 return
          </CharString>
          <CharString index="258">
            -104 callsubr
            134 -91 callsubr
            return
          </CharString>
          <CharString index="259">
            -28 vlineto
            -10 -5 -4 -8 vhcurveto
            -90 hlineto
            return
          </CharString>
          <CharString index="260">
            hlineto
            10 callsubr
            return
          </CharString>
          <CharString index="261">
            vlineto
            16 434 callgsubr
            return
          </CharString>
          <CharString index="262">
            vvcurveto
            -76 429 callgsubr
            87 hlineto
            51 callgsubr
            81 vlineto
            47 18 21 45 vhcurveto
            return
          </CharString>
          <CharString index="263">
            rmoveto
            -16 8 -8 17 vhcurveto
            67 90 callsubr
            52 371 callgsubr
            -102 11 callsubr
            return
          </CharString>
          <CharString index="264">
            -277 66 callsubr
            return
          </CharString>
          <CharString index="265">
            0 callgsubr
            -28 vlineto
            return
          </CharString>
          <CharString index="266">
            -37 -13 -17 -34 -40 vvcurveto
            return
          </CharString>
          <CharString index="267">
            -10 callsubr
            302 -97 callsubr
            -258 vlineto
            -40 -21 -23 -43 vhcurveto
            -23 hlineto
            -49 -28 24 48 hvcurveto
            30 vlineto
            48 24 24 49 vhcurveto
            19 -92 callsubr
            -37 hlineto
            -110 -59 -64 -106 -1 hvcurveto
            -42 vlineto
            return
          </CharString>
          <CharString index="268">
            441 callgsubr
            12 10 vhcurveto
            150 115 rlineto
            15 11 5 5 21 vvcurveto
            41 vlineto
            20 -6 5 -14 10 vhcurveto
            -150 115 rlineto
            -12 10 -8 -5 -15 vvcurveto
            return
          </CharString>
          <CharString index="269">
            rlineto
            -8 -6 -2 -6 -6 vvcurveto
            -8 6 -7 12 vhcurveto
            107 hlineto
            13 11 5 7 9 hvcurveto
            return
          </CharString>
          <CharString index="270">
            16 -83 callsubr
            return
          </CharString>
          <CharString index="271">
            418 callgsubr
            232 callgsubr
            -7 6 -13 hhcurveto
            -217 hmoveto
            -13 -9 -4 -15 308 callgsubr
            42 410 callgsubr
            6 hvcurveto
            71 96 rlineto
            14 10 -6 6 -13 hhcurveto
            endchar
          </CharString>
          <CharString index="272">
            hlineto
            -90 callgsubr
            return
          </CharString>
          <CharString index="273">
            vhcurveto
            -14 hlineto
            -49 -27 20 51 hvcurveto
            26 180 callsubr
            -68 hlineto
            -17 297 callgsubr
            -25 vlineto
            -112 64 -64 112 vhcurveto
            41 hlineto
            117 56 return
          </CharString>
          <CharString index="274">
            -4 hlineto
            144 callsubr
            8 7 23 26 29 35 21 25 23 29 25 29 rrcurveto
            -51 callgsubr
            271 21 callsubr
            23 hlineto
            return
          </CharString>
          <CharString index="275">
            -6 623 12 callgsubr
            return
          </CharString>
          <CharString index="276">
            vlineto
            16 -8 7 return
          </CharString>
          <CharString index="277">
            rmoveto
            -14 7 -5 13 vhcurveto
            72 hlineto
            13 7 6 14 hvcurveto
            199 vlineto
            15 -8 5 -10 -7 -7 -4 -6 -4 vhcurveto
            -53 -101 rlineto
            -13 -25 -10 -20 -34 vvcurveto
            return
          </CharString>
          <CharString index="278">
            253 callsubr
            61 265 callsubr
            return
          </CharString>
          <CharString index="279">
            60 -58 105 vhcurveto
            return
          </CharString>
          <CharString index="280">
            255 callsubr
            278 callgsubr
            6 413 callgsubr
            return
          </CharString>
          <CharString index="281">
            -7 -1 -7 -1 -7 vhcurveto
            -147 132 rlineto
            2 return
          </CharString>
          <CharString index="282">
            7 241 callgsubr
            return
          </CharString>
          <CharString index="283">
            vlineto
            163 callsubr
            return
          </CharString>
          <CharString index="284">
            hhcurveto
            122 callgsubr
            return
          </CharString>
          <CharString index="285">
            219 callgsubr
            114 hlineto
            20 11 -8 -30 hvcurveto
            -11 vlineto
            -28 -11 -9 -20 vhcurveto
            -82 hlineto
            return
          </CharString>
          <CharString index="286">
            519 rmoveto
            -105 callsubr
            return
          </CharString>
          <CharString index="287">
            230 callgsubr
            -14 vhcurveto
            return
          </CharString>
          <CharString index="288">
            18 6 7 17 hvcurveto
            return
          </CharString>
          <CharString index="289">
            vlineto
            -15 7 -8 return
          </CharString>
          <CharString index="290">
            -78 callsubr
            261 21 callsubr
            return
          </CharString>
          <CharString index="291">
            vlineto
            48 24 23 49 vhcurveto
            11 23 callgsubr
            -31 hlineto
            return
          </CharString>
          <CharString index="292">
            hlineto
            15 7 8 15 hvcurveto
            return
          </CharString>
          <CharString index="293">
            182 callsubr
            15 vhcurveto
            return
          </CharString>
          <CharString index="294">
            318 callgsubr
            249 callgsubr
            7 146 callgsubr
            -7 5 -13 250 callgsubr
          </CharString>
          <CharString index="295">
            158 callsubr
            -98 54 -55 97 vhcurveto
            return
          </CharString>
          <CharString index="296">
            -80 -55 -40 -82 hvcurveto
            return
          </CharString>
          <CharString index="297">
            574 rmoveto
            64 hlineto
            11 125 callsubr
            -4 hvcurveto
            -32 -66 -32 66 rlineto
            9 -4 -6 3 -8 274 callsubr
            endchar
          </CharString>
          <CharString index="298">
            hlineto
            95 50 64 97 hvcurveto
            66 33 callsubr
            return
          </CharString>
          <CharString index="299">
            vlineto
            211 callgsubr
            return
          </CharString>
          <CharString index="300">
            -50 callgsubr
            101 vlineto
            47 18 21 45 vhcurveto
            return
          </CharString>
          <CharString index="301">
            -91 callsubr
            -88 -4 vlineto
            205 callsubr
            return
          </CharString>
          <CharString index="302">
            -21 -18 13 -34 24 hhcurveto
            25 hlineto
            36 9 -4 -20 hvcurveto
            -2 vlineto
            -18 -8 -5 -37 vhcurveto
            -33 hlineto
            -15 -3 -4 -15 hvcurveto
            -20 vlineto
            -14 return
          </CharString>
          <CharString index="303">
            -72 callsubr
            128 -97 callsubr
            return
          </CharString>
          <CharString index="304">
            -55 callsubr
            82 -65 callgsubr
            -146 return
          </CharString>
          <CharString index="305">
            -47 callsubr
            -154 375 callsubr
            return
          </CharString>
          <CharString index="306">
            -103 55 -69 116 vhcurveto
            return
          </CharString>
          <CharString index="307">
            16 394 callsubr
            return
          </CharString>
          <CharString index="308">
            -25 callgsubr
            -6 0 -6 return
          </CharString>
          <CharString index="309">
            692 rmoveto
            7 -5 -7 4 -11 hhcurveto
            -64 hlineto
            -11 -7 -4 -7 -5 hvcurveto
            -62 349 callgsubr
            435 callgsubr
            8 6 3 9 4 hvcurveto
            32 66 32 -66 rlineto
            -9 4 399 callsubr
          </CharString>
          <CharString index="310">
            816 77 callsubr
            -81 421 callgsubr
            -72 186 callsubr
            81 185 callsubr
            return
          </CharString>
          <CharString index="311">
            85 callsubr
            13 314 callgsubr
            return
          </CharString>
          <CharString index="312">
            14 -9 -20 10 -31 hhcurveto
            -58 -22 414 callsubr
            return
          </CharString>
          <CharString index="313">
            -73 callgsubr
            -661 -15 callsubr
            return
          </CharString>
          <CharString index="314">
            340 callsubr
            -8 hvcurveto
            return
          </CharString>
          <CharString index="315">
            97 callgsubr
            -64 37 -67 83 -3 vhcurveto
            10 -4 hlineto
            0 -39 -18 -54 -55 vhcurveto
            -63 -65 -50 callsubr
            return
          </CharString>
          <CharString index="316">
            hlineto
            -78 callsubr
            return
          </CharString>
          <CharString index="317">
            hlineto
            216 callgsubr
            return
          </CharString>
          <CharString index="318">
            rlineto
            8 -8 -4 3 -6 310 callsubr
            return
          </CharString>
          <CharString index="319">
            vlineto
            -108 59 -58 108 vhcurveto
            return
          </CharString>
          <CharString index="320">
            226 callsubr
            4 return
          </CharString>
          <CharString index="321">
            650 rmoveto
            431 callsubr
            18 5 30 22 vhcurveto
            23 18 3 5 8 hhcurveto
            11 5 -5 -32 hvcurveto
            -9 vlineto
            -10 2 -3 8 vhcurveto
            40 hlineto
            8 2 3 10 hvcurveto
            37 vlineto
            40 -16 36 -56 -23 -17 -6 -25 -20 vhcurveto
            -26 return
          </CharString>
          <CharString index="322">
            rmoveto
            -68 -38 -37 -68 hvcurveto
            -96 vlineto
            -68 38 -37 68 vhcurveto
            59 hlineto
            69 37 37 68 hvcurveto
            96 vlineto
            68 -37 37 -69 vhcurveto
            return
          </CharString>
          <CharString index="323">
            -5 -6 -4 -6 -8 vvcurveto
            -8 6 -7 286 callsubr
            return
          </CharString>
          <CharString index="324">
            104 callsubr
            -28 vlineto
            -9 return
          </CharString>
          <CharString index="325">
            hlineto
            193 callgsubr
            return
          </CharString>
          <CharString index="326">
            hlineto
            -12 callsubr
            -95 72 -45 91 430 callsubr
            return
          </CharString>
          <CharString index="327">
            -8 -3 5 6 hvcurveto
            80 vlineto
            52 21 23 46 vhcurveto
            17 23 callgsubr
            return
          </CharString>
          <CharString index="328">
            415 232 callsubr
            -9 -9 -1 -1 -9 hvcurveto
            41 -23 -39 22 -51 hhcurveto
            -26 132 callsubr
            82 0 callsubr
            400 -91 callsubr
            return
          </CharString>
          <CharString index="329">
            hlineto
            -30 -1 -18 -12 -30 hhcurveto
            -28 364 callsubr
            -17 300 callgsubr
            74 328 callsubr
            53 vlineto
            63 -36 36 -49 7 vhcurveto
            4 vlineto
            27 8 8 28 25 vvcurveto
            return
          </CharString>
          <CharString index="330">
            rmoveto
            -16 -8 -7 -16 hvcurveto
            -56 148 callgsubr
            return
          </CharString>
          <CharString index="331">
            hlineto
            80 50 51 80 hvcurveto
            return
          </CharString>
          <CharString index="332">
            -60 callsubr
            -76 return
          </CharString>
          <CharString index="333">
            hlineto
            59 35 20 33 20 hvcurveto
            return
          </CharString>
          <CharString index="334">
            -46 -16 16 49 hvcurveto
            return
          </CharString>
          <CharString index="335">
            hlineto
            -16 -8 -6 return
          </CharString>
          <CharString index="336">
            -93 379 622 rmoveto
            13 5 -6 8 -15 hhcurveto
            -77 437 callgsubr
            -100 -271 -64 -165 rrcurveto
            -15 -6 7 -6 15 hhcurveto
            77 hlineto
            40 callsubr
            6 hvcurveto
            endchar
          </CharString>
          <CharString index="337">
            hlineto
            -217 370 callsubr
            12 5 11 9 hvcurveto
            149 181 rlineto
            20 25 3 22 51 vvcurveto
            55 176 callsubr
            endchar
          </CharString>
          <CharString index="338">
            hhcurveto
            -18 132 callsubr
            92 0 callsubr
            return
          </CharString>
          <CharString index="339">
            112 callsubr
            -154 hlineto
            return
          </CharString>
          <CharString index="340">
            241 callsubr
            -36 vvcurveto
            return
          </CharString>
          <CharString index="341">
            -5 -7 -14 hvcurveto
            return
          </CharString>
          <CharString index="342">
            rmoveto
            7 -5 -6 4 -11 hhcurveto
            -65 hlineto
            -10 -7 -4 -7 -5 hvcurveto
            -62 -105 rlineto
            -7 -4 2 -6 10 hhcurveto
            59 hlineto
            8 6 3 9 3 hvcurveto
            33 66 32 -66 rlineto
            -9 4 5 -3 9 hhcurveto
            return
          </CharString>
          <CharString index="343">
            -91 callsubr
            -54 -19 callgsubr
            -106 hlineto
            103 callsubr
            return
          </CharString>
          <CharString index="344">
            rmoveto
            -16 -8 -7 -16 hvcurveto
            -58 vlineto
            -95 callgsubr
            return
          </CharString>
          <CharString index="345">
            hlineto
            22 12 5 22 hvcurveto
            43 vlineto
            16 -9 12 -22 vhcurveto
            return
          </CharString>
          <CharString index="346">
            1 4 1 7 rrcurveto
            8 1 4 4 8 hhcurveto
            return
          </CharString>
          <CharString index="347">
            -109 -54 -57 -109 hvcurveto
            return
          </CharString>
          <CharString index="348">
            -21 callsubr
            352 callsubr
            return
          </CharString>
          <CharString index="349">
            385 callsubr
            13 5 6 15 -8 hvcurveto
            endchar
          </CharString>
          <CharString index="350">
            vlineto
            -105 52 -58 104 vhcurveto
            return
          </CharString>
          <CharString index="351">
            vlineto
            48 22 23 44 vhcurveto
            return
          </CharString>
          <CharString index="352">
            -37 callsubr
            -41 -126 362 callsubr
            return
          </CharString>
          <CharString index="353">
            -239 hlineto
            -125 -56 -68 -112 hvcurveto
            207 callgsubr
            vhcurveto
            239 hlineto
            49 16 -19 -56 hvcurveto
            -75 vlineto
            return
          </CharString>
          <CharString index="354">
            -68 rlineto
            -27 -18 10 -28 38 hhcurveto
            32 65 14 32 17 -5 3 -16 hvcurveto
            -42 hlineto
            38 57 rlineto
            return
          </CharString>
          <CharString index="355">
            -138 hlineto
            -26 callsubr
            56 -104 callsubr
            return
          </CharString>
          <CharString index="356">
            8 7 17 hvcurveto
            return
          </CharString>
          <CharString index="357">
            -7 callsubr
            -16 return
          </CharString>
          <CharString index="358">
            hhcurveto
            -1 callgsubr
            -96 -57 -49 -83 -14 hvcurveto
            -136 -8 callgsubr
            return
          </CharString>
          <CharString index="359">
            116 callsubr
            -58 hlineto
            return
          </CharString>
          <CharString index="360">
            118 callgsubr
            -40 291 callsubr
            return
          </CharString>
          <CharString index="361">
            rlineto
            2 8 8 1 10 121 callsubr
            return
          </CharString>
          <CharString index="362">
            287 callsubr
            -99 hlineto
            -13 return
          </CharString>
          <CharString index="363">
            hvcurveto
            56 -87 callgsubr
            return
          </CharString>
          <CharString index="364">
            -9 -11 9 hvcurveto
            81 -96 rlineto
            -8 return
          </CharString>
          <CharString index="365">
            62 callsubr
            7 142 callsubr
          </CharString>
          <CharString index="366">
            -25 callsubr
            233 276 callsubr
            return
          </CharString>
          <CharString index="367">
            -16 32 vhcurveto
            58 hlineto
            31 19 16 32 hvcurveto
            68 vlineto
            31 -19 15 -31 vhcurveto
            -58 hlineto
            -32 return
          </CharString>
          <CharString index="368">
            -89 callsubr
            55 -87 callgsubr
            -11 hlineto
            197 callgsubr
            return
          </CharString>
          <CharString index="369">
            -190 251 268 rmoveto
            16 394 callgsubr
            59 vlineto
            15 369 callsubr
            -190 400 callsubr
            endchar
          </CharString>
          <CharString index="370">
            rmoveto
            333 callsubr
            return
          </CharString>
          <CharString index="371">
            vlineto
            183 callgsubr
            return
          </CharString>
          <CharString index="372">
            vlineto
            48 20 20 49 vhcurveto
            return
          </CharString>
          <CharString index="373">
            836 55 callgsubr
            5 377 callgsubr
            -6 9 -13 hhcurveto
            return
          </CharString>
          <CharString index="374">
            rmoveto
            -12 -10 -5 -14 -8 hvcurveto
            -44 -89 rlineto
            -15 -7 4 377 callgsubr
            -5 9 -14 hhcurveto
            endchar
          </CharString>
          <CharString index="375">
            196 634 -196 hlineto
            236 -185 rmoveto
            196 185 -196 hlineto
            return
          </CharString>
          <CharString index="376">
            31 -14 351 callsubr
            -23 -77 vvcurveto
            return
          </CharString>
          <CharString index="377">
            -13 18 51 hvcurveto
            return
          </CharString>
          <CharString index="378">
            0 -32 -16 -44 -41 vhcurveto
            -45 -41 -50 callsubr
            94 hlineto
            13 9 297 callsubr
            13 12 33 34 37 39 return
          </CharString>
          <CharString index="379">
            hlineto
            -27 -53 rlineto
            264 callgsubr
            -6 5 -12 -1 rrcurveto
            -2 -37 -3 -7 -4 26 47 16 9 vhcurveto
            return
          </CharString>
          <CharString index="380">
            703 88 callsubr
            return
          </CharString>
          <CharString index="381">
            413 callsubr
            -3 152 callgsubr
            11 hhcurveto
            return
          </CharString>
          <CharString index="382">
            rmoveto
            416 callgsubr
            return
          </CharString>
          <CharString index="383">
            vlineto
            17 -8 6 -16 vhcurveto
            -64 hlineto
            -16 -8 -7 -16 hvcurveto
            return
          </CharString>
          <CharString index="384">
            hlineto
            -28 callsubr
            return
          </CharString>
          <CharString index="385">
            hvcurveto
            601 233 callgsubr
            return
          </CharString>
          <CharString index="386">
            vlineto
            17 -5 7 -18 vhcurveto
            return
          </CharString>
          <CharString index="387">
            -116 -55 -65 -103 hvcurveto
            return
          </CharString>
          <CharString index="388">
            hlineto
            16 8 7 return
          </CharString>
          <CharString index="389">
            -13 -10 -4 -15 133 callgsubr
            4 -6 14 hhcurveto
            41 379 callsubr
            return
          </CharString>
          <CharString index="390">
            137 callsubr
            66 410 callsubr
            6 281 callgsubr
            -5 9 return
          </CharString>
          <CharString index="391">
            4 callsubr
            -57 vlineto
            -16 7 -7 17 vhcurveto
            87 -4 hlineto
            388 callgsubr
            return
          </CharString>
          <CharString index="392">
            vhcurveto
            4 vlineto
            25 15 14 25 38 vvcurveto
            117 vlineto
            8 3 6 7 vhcurveto
            return
          </CharString>
          <CharString index="393">
            12 vhcurveto
            83 hlineto
            13 8 297 callsubr
            return
          </CharString>
          <CharString index="394">
            rmoveto
            14 -7 -10 5 -13 hhcurveto
            return
          </CharString>
          <CharString index="395">
            rmoveto
            15 5 8 14 hvcurveto
            44 vlineto
            14 -5 7 -15 vhcurveto
            -198 hlineto
            -15 234 callsubr
            -44 vlineto
            -14 5 -8 15 vhcurveto
            endchar
          </CharString>
          <CharString index="396">
            181 callsubr
            58 176 callsubr
            return
          </CharString>
          <CharString index="397">
            hlineto
            80 50 49 80 hvcurveto
            return
          </CharString>
          <CharString index="398">
            hlineto
            -49 -24 24 48 hvcurveto
            return
          </CharString>
          <CharString index="399">
            rmoveto
            118 callgsubr
            -39 291 callsubr
            10 265 callsubr
            49 392 callgsubr
            -344 return
          </CharString>
          <CharString index="400">
            311 callgsubr
            -79 -32 38 64 hvcurveto
            17 9 vlineto
            94 46 43 85 hvcurveto
            25 vlineto
            37 -18 22 -17 8 vhcurveto
            5 return
          </CharString>
          <CharString index="401">
            -247 321 callgsubr
            return
          </CharString>
          <CharString index="402">
            20 6 20 22 vvcurveto
            return
          </CharString>
          <CharString index="403">
            104 61 58 105 hvcurveto
            return
          </CharString>
          <CharString index="404">
            4 6 6 hvcurveto
            return
          </CharString>
          <CharString index="405">
            hlineto
            -74 callsubr
            191 -97 callsubr
            -8 -19 callgsubr
            return
          </CharString>
          <CharString index="406">
            27 callgsubr
            endchar
          </CharString>
          <CharString index="407">
            10 vvcurveto
            6 -2 5 -7 7 vhcurveto
            return
          </CharString>
          <CharString index="408">
            623 328 callgsubr
            return
          </CharString>
          <CharString index="409" raw="1">
            9b1fc307 0b  
          </CharString>
          <CharString index="410">
            rmoveto
            -14 7 -7 13 vhcurveto
            79 hlineto
            14 6 146 callgsubr
            -7 5 -13 vhcurveto
            -79 hlineto
            -13 -7 -6 -14 hvcurveto
            return
          </CharString>
          <CharString index="411">
            rmoveto
            -47 -14 -27 -45 vhcurveto
            -10 hlineto
            -45 -14 27 47 hvcurveto
            53 vlineto
            47 14 27 45 vhcurveto
            10 hlineto
            45 14 -27 -47 hvcurveto
            return
          </CharString>
          <CharString index="412">
            rlineto
            -4 -4 -2 -5 -5 vvcurveto
            -8 6 -7 12 vhcurveto
            86 hlineto
            16 return
          </CharString>
          <CharString index="413">
            118 rmoveto
            -4 callsubr
            return
          </CharString>
          <CharString index="414">
            9 256 callgsubr
            return
          </CharString>
          <CharString index="415">
            -19 132 callsubr
            return
          </CharString>
          <CharString index="416">
            6 -7 14 vhcurveto
            87 hlineto
            14 6 7 return
          </CharString>
          <CharString index="417">
            hhcurveto
            -8 -5 -5 -8 -8 hvcurveto
            return
          </CharString>
          <CharString index="418">
            -21 vlineto
            -32 -18 -13 -31 vhcurveto
            return
          </CharString>
          <CharString index="419">
            rmoveto
            261 callgsubr
            return
          </CharString>
          <CharString index="420">
            rmoveto
            10 callsubr
            return
          </CharString>
          <CharString index="421">
            vlineto
            -16 221 callgsubr
            return
          </CharString>
          <CharString index="422">
            -20 -10 7 20 hvcurveto
            return
          </CharString>
          <CharString index="423">
            96 rlineto
            11 9 return
          </CharString>
          <CharString index="424">
            56 vlineto
            16 -8 return
          </CharString>
          <CharString index="425">
            26 -26 -38 14 -52 hhcurveto
            -9 hlineto
            -111 -57 -62 -114 hvcurveto
            -53 436 callsubr
            return
          </CharString>
          <CharString index="426">
            168 callgsubr
            -109 -62 -62 -108 hvcurveto
            -68 vlineto
            return
          </CharString>
          <CharString index="427">
            hmoveto
            105 327 callgsubr
            -105 vhcurveto
            return
          </CharString>
          <CharString index="428">
            4 6 15 -7 hvcurveto
            endchar
          </CharString>
          <CharString index="429">
            441 callgsubr
            9 return
          </CharString>
          <CharString index="430">
            rmoveto
            -79 -32 38 64 hvcurveto
            17 6 vlineto
            96 3 47 39 86 vvcurveto
            25 vlineto
            37 -18 22 -17 8 vhcurveto
            5 return
          </CharString>
          <CharString index="431">
            vlineto
            8 4 3 7 vhcurveto
            109 128 callsubr
            -305 186 callgsubr
            endchar
          </CharString>
          <CharString index="432">
            vhcurveto
            53 68 rlineto
            16 295 callsubr
            return
          </CharString>
          <CharString index="433" raw="1">
            971ee1d7 1d0b  
          </CharString>
          <CharString index="434">
            169 rmoveto
            163 callgsubr
            return
          </CharString>
          <CharString index="435">
            hlineto
            106 65 58 104 hvcurveto
            return
          </CharString>
          <CharString index="436">
            hlineto
            24 13 -11 -21 hvcurveto
            return
          </CharString>
          <CharString index="437">
            vlineto
            296 callgsubr
            return
          </CharString>
          <CharString index="438">
            30 341 callsubr
            return
          </CharString>
          <CharString index="439">
            hlineto
            82 -12 -51 43 -73 hhcurveto
            377 callsubr
            return
          </CharString>
          <CharString index="440">
            -47 callsubr
            -132 38 callgsubr
            return
          </CharString>
          <CharString index="441">
            hlineto
            412 callgsubr
            -58 369 callgsubr
            return
          </CharString>
          <CharString index="442">
            hlineto
            -4 callsubr
            return
          </CharString>
          <CharString index="443">
            vlineto
            9 -5 374 callgsubr
            return
          </CharString>
          <CharString index="444">
            vlineto
            42 15 17 43 vhcurveto
            94 207 callsubr
            return
          </CharString>
          <CharString index="445">
            -55 367 callgsubr
            return
          </CharString>
          <CharString index="446">
            -105 -60 -58 -105 hvcurveto
            return
          </CharString>
          <CharString index="447">
            hlineto
            8 4 -3 return
          </CharString>
          <CharString index="448">
            hlineto
            43 36 17 22 13 hvcurveto
            386 callsubr
            return
          </CharString>
          <CharString index="449">
            -6 13 hhcurveto
            64 hlineto
            11 382 callgsubr
          </CharString>
          <CharString index="450">
            -97 callsubr
            -237 vlineto
            346 callsubr
            return
          </CharString>
          <CharString index="451">
            -16 -13 329 callgsubr
            -9 -11 -26 vhcurveto
            return
          </CharString>
          <CharString index="452">
            hvcurveto
            -33 -66 -32 363 callsubr
            return
          </CharString>
          <CharString index="453">
            -53 -27 -32 -53 vhcurveto
            -50 244 callgsubr
            return
          </CharString>
          <CharString index="454">
            -5 -6 -7 hhcurveto
            -11 -4 6 30 hvcurveto
            return
          </CharString>
          <CharString index="455">
            -5 -8 1 9 -1 hvcurveto
            return
          </CharString>
          <CharString index="456">
            vlineto
            261 callgsubr
            return
          </CharString>
          <CharString index="457">
            rmoveto
            214 callgsubr
            return
          </CharString>
          <CharString index="458">
            hvcurveto
            -4 vlineto
            -28 -12 -29 return
          </CharString>
          <CharString index="459">
            -4 hlineto
            376 callgsubr
            return
          </CharString>
          <CharString index="460">
            7 callsubr
            85 104 callsubr
            return
          </CharString>
          <CharString index="461">
            rmoveto
            84 callgsubr
            121 vlineto
            153 -163 rlineto
            -15 -11 -19 -9 -30 hhcurveto
            return
          </CharString>
          <CharString index="462">
            23 hlineto
            57 60 32 28 36 hvcurveto
            17 13 5 4 11 vvcurveto
            5 -3 5 -4 6 vhcurveto
            return
          </CharString>
          <CharString index="463">
            hvcurveto
            68 vlineto
            14 return
          </CharString>
          <CharString index="464">
            -9 vvcurveto
            -6 2 -5 5 -8 vhcurveto
            33 -52 rlineto
            -6 4 5 -4 10 hhcurveto
            6 8 return
          </CharString>
          <CharString index="465">
            361 callgsubr
            -61 vlineto
            253 callsubr
            return
          </CharString>
          <CharString index="466">
            -47 24 callsubr
            return
          </CharString>
          <CharString index="467">
            104 60 58 105 hvcurveto
            return
          </CharString>
          <CharString index="468">
            -18 -5 -7 -17 hvcurveto
            return
          </CharString>
          <CharString index="469">
            379 callgsubr
            -13 hlineto
            return
          </CharString>
          <CharString index="470">
            66 rlineto
            9 -4 -5 3 -9 hhcurveto
            return
          </CharString>
          <CharString index="471">
            432 callsubr
            -62 -108 hvcurveto
            return
          </CharString>
          <CharString index="472">
            hlineto
            8 5 -5 -8 hvcurveto
            return
          </CharString>
          <CharString index="473">
            vlineto
            353 callgsubr
            return
          </CharString>
          <CharString index="474">
            rmoveto
            -100 callsubr
            return
          </CharString>
          <CharString index="475">
            vlineto
            105 -61 57 -104 vhcurveto
            return
          </CharString>
          <CharString index="476">
            -5 7 -16 vhcurveto
            return
          </CharString>
          <CharString index="477">
            -242 305 callsubr
            return
          </CharString>
          <CharString index="478">
            417 callsubr
            -6 -9 -11 9 hvcurveto
            return
          </CharString>
          <CharString index="479">
            -93 callsubr
            152 callsubr
            -87 -54 return
          </CharString>
          <CharString index="480">
            475 rmoveto
            429 callsubr
            return
          </CharString>
          <CharString index="481">
            -32 3 -35 17 -20 return
          </CharString>
          <CharString index="482">
            hlineto
            400 callgsubr
            return
          </CharString>
          <CharString index="483">
            351 callgsubr
            35 310 callgsubr
            return
          </CharString>
          <CharString index="484">
            -7 406 callsubr
            82 0 callsubr
            return
          </CharString>
          <CharString index="485">
            408 callgsubr
            110 rmoveto
            -7 -4 3 8 hvcurveto
            return
          </CharString>
          <CharString index="486">
            410 callgsubr
            6 hvcurveto
            72 96 rlineto
            14 9 -6 6 -13 hhcurveto
            return
          </CharString>
          <CharString index="487">
            110 rmoveto
            431 callgsubr
            305 vlineto
            42 15 17 43 vhcurveto
            return
          </CharString>
          <CharString index="488">
            398 callsubr
            endchar
          </CharString>
          <CharString index="489">
            6 callgsubr
            endchar
          </CharString>
          <CharString index="490">
            422 callsubr
            endchar
          </CharString>
          <CharString index="491">
            33 11 27 30 57 vvcurveto
            40 vlineto
            31 -14 21 -17 9 vhcurveto
            4 return
          </CharString>
          <CharString index="492">
            257 callsubr
            7 423 callgsubr
            return
          </CharString>
          <CharString index="493">
            4 -86 -42 callgsubr
            70 -89 callsubr
            return
          </CharString>
          <CharString index="494">
            208 callgsubr
            462 80 350 callsubr
            return
          </CharString>
          <CharString index="495">
            vlineto
            14 -7 5 427 callgsubr
          </CharString>
          <CharString index="496">
            -91 callsubr
            -63 vlineto
            return
          </CharString>
          <CharString index="497">
            318 callgsubr
            14 vhcurveto
            return
          </CharString>
          <CharString index="498">
            283 callgsubr
            -104 vhcurveto
            return
          </CharString>
          <CharString index="499">
            rmoveto
            -88 callgsubr
            return
          </CharString>
          <CharString index="500">
            -16 8 -7 16 vhcurveto
            return
          </CharString>
          <CharString index="501">
            5 5 15 hvcurveto
            return
          </CharString>
          <CharString index="502">
            337 callsubr
            -102 return
          </CharString>
          <CharString index="503">
            76 callsubr
            105 0 callsubr
            return
          </CharString>
          <CharString index="504">
            -3 -6 -7 4 hvcurveto
            63 -105 rlineto
            -7 5 6 -4 11 hhcurveto
            return
          </CharString>
          <CharString index="505">
            hlineto
            15 7 5 16 hvcurveto
            468 154 callsubr
            return
          </CharString>
          <CharString index="506">
            6 -3 8 427 callsubr
          </CharString>
          <CharString index="507">
            391 callgsubr
            -59 349 callsubr
            return
          </CharString>
          <CharString index="508">
            hlineto
            -54 -19 17 35 hvcurveto
            37 vlineto
            33 13 19 43 vhcurveto
            return
          </CharString>
          <CharString index="509">
            -15 callsubr
            84 hlineto
            14 8 5 16 hvcurveto
            return
          </CharString>
          <CharString index="510">
            vlineto
            -19 9 -10 19 vhcurveto
            68 hlineto
            19 9 10 19 hvcurveto
            return
          </CharString>
          <CharString index="511">
            rmoveto
            412 callgsubr
            -58 369 callgsubr
            return
          </CharString>
          <CharString index="512">
            vlineto
            16 412 callsubr
            -85 hlineto
            -14 -7 -6 -16 hvcurveto
            return
          </CharString>
          <CharString index="513">
            hlineto
            -45 -27 callgsubr
            return
          </CharString>
          <CharString index="514">
            623 rmoveto
            -8 -3 5 6 hvcurveto
            return
          </CharString>
          <CharString index="515">
            -5 -14 291 callgsubr
            return
          </CharString>
          <CharString index="516">
            -482 vlineto
            -95 callgsubr
            return
          </CharString>
          <CharString index="517">
            hlineto
            10 10 5 8 return
          </CharString>
          <CharString index="518">
            15 292 callgsubr
            return
          </CharString>
          <CharString index="519">
            -7 6 -14 vhcurveto
            return
          </CharString>
          <CharString index="520">
            hhcurveto
            -59 hlineto
            -9 return
          </CharString>
          <CharString index="521">
            370 callgsubr
            -4 hlineto
            35 callgsubr
            return
          </CharString>
          <CharString index="522">
            -53 13 -43 29 -30 vhcurveto
            -25 -19 -19 -35 -53 vvcurveto
            return
          </CharString>
          <CharString index="523">
            222 327 callsubr
            return
          </CharString>
          <CharString index="524">
            684 255 callsubr
            return
          </CharString>
          <CharString index="525">
            5 -12 110 callgsubr
            endchar
          </CharString>
          <CharString index="526">
            vlineto
            -15 7 -7 14 vhcurveto
            return
          </CharString>
          <CharString index="527">
            vlineto
            42 16 16 42 vhcurveto
            return
          </CharString>
          <CharString index="528">
            vlineto
            14 369 callsubr
            return
          </CharString>
          <CharString index="529">
            vlineto
            -14 5 -53 callsubr
            return
          </CharString>
          <CharString index="530">
            vlineto
            -25 callsubr
            return
          </CharString>
          <CharString index="531">
            rmoveto
            -12 -10 408 callsubr
            return
          </CharString>
          <CharString index="532">
            405 232 callsubr
            return
          </CharString>
          <CharString index="533">
            hhcurveto
            11 hlineto
            49 6 -33 -38 hvcurveto
            -118 vlineto
            return
          </CharString>
          <CharString index="534">
            hhcurveto
            60 hlineto
            9 2 331 callgsubr
          </CharString>
          <CharString index="535">
            8 vhcurveto
            18 28 30 48 hhcurveto
            return
          </CharString>
          <CharString index="536">
            -8 -4 -5 -7 vhcurveto
            -97 hlineto
            return
          </CharString>
          <CharString index="537">
            vhcurveto
            8 -4 hlineto
            0 return
          </CharString>
          <CharString index="538">
            -40 16 -36 56 23 return
          </CharString>
          <CharString index="539">
            hlineto
            -109 -62 return
          </CharString>
          <CharString index="540">
            85 hlineto
            14 7 return
          </CharString>
          <CharString index="541">
            vlineto
            -6 0 -6 return
          </CharString>
          <CharString index="542">
            -91 callsubr
            -194 vlineto
            return
          </CharString>
          <CharString index="543">
            vlineto
            -114 57 -62 111 vhcurveto
            9 hlineto
            return
          </CharString>
          <CharString index="544">
            hlineto
            111 57 62 114 hvcurveto
            53 vlineto
            return
          </CharString>
          <CharString index="545">
            25 26 -18 19 -26 -25 -19 -19 -26 vhcurveto
            return
          </CharString>
          <CharString index="546">
            hlineto
            279 callgsubr
            return
          </CharString>
          <CharString index="547">
            hvcurveto
            -10 vlineto
            -23 return
          </CharString>
          <CharString index="548">
            9 -13 hhcurveto
            endchar
          </CharString>
        <CharString name=".notdef">
          254 160 hmoveto
          436 701 -436 hlineto
          81 -76 rmoveto
          275 -549 -275 hlineto
          endchar
        </CharString>
        <CharString name="A">
          55 -67 callgsubr
          endchar
        </CharString>
        <CharString name="AE">
          279 364 522 rmoveto
          4 -279 -131 hlineto
          -125 -243 rmoveto
          40 callsubr
          6 hvcurveto
          51 111 rlineto
          178 -111 hlineto
          -16 callsubr
          327 hlineto
          -46 callgsubr
          209 102 callsubr
          -399 hlineto
          -17 -8 -5 -16 -8 hvcurveto
          -277 -600 rlineto
          -14 -6 4 -8 15 hhcurveto
          endchar
        </CharString>
        <CharString name="Aacute">
          54 -67 callgsubr
          271 836 rmoveto
          -12 82 callgsubr
          4 -6 13 hhcurveto
          66 hlineto
          10 253 callgsubr
          -14 hhcurveto
          endchar
        </CharString>
        <CharString name="Abreve">
          54 -67 callgsubr
          127 823 rmoveto
          -11 vlineto
          -69 38 -36 60 vhcurveto
          35 hlineto
          59 39 373 callgsubr
          -50 hlineto
          -9 272 callgsubr
        </CharString>
        <CharString name="Acircumflex">
          54 -67 callgsubr
          297 825 235 callsubr
          60 hlineto
          9 2 6 7 -4 hvcurveto
          endchar
        </CharString>
        <CharString name="Adieresis">
          54 -67 callgsubr
          278 728 -6 callsubr
        </CharString>
        <CharString name="Agrave">
          54 -67 callgsubr
          238 262 callgsubr
        </CharString>
        <CharString name="Amacron">
          54 -67 callgsubr
          341 732 134 callsubr
        </CharString>
        <CharString name="Aogonek">
          54 205 233 rmoveto
          72 289 rlineto
          4 hlineto
          72 -289 rlineto
          22 389 rmoveto
          16 -4 -10 5 -16 hhcurveto
          -133 hlineto
          -16 -9 -5 -16 -5 hvcurveto
          -158 -601 rlineto
          -15 -4 2 -6 14 hhcurveto
          96 hlineto
          14 4 5 16 3 hvcurveto
          28 110 rlineto
          195 hlineto
          28 -110 rlineto
          -2 vlineto
          -53 -87 rlineto
          -27 -17 10 -28 38 hhcurveto
          32 65 14 32 17 -5 3 -17 hvcurveto
          -41 hlineto
          37 57 rlineto
          68 hlineto
          14 2 6 15 -4 hvcurveto
          endchar
        </CharString>
        <CharString name="Aring">
          54 -67 callgsubr
          233 750 rmoveto
          -17 -6 6 19 hvcurveto
          26 vlineto
          20 7 271 callgsubr
          -35 -19 -19 -33 hvcurveto
          -64 vlineto
          -35 19 -19 35 vhcurveto
          endchar
        </CharString>
        <CharString name="Atilde">
          54 -67 callgsubr
          258 738 rmoveto
          22 18 3 5 8 hhcurveto
          12 4 -5 -31 hvcurveto
          -10 vlineto
          -9 2 -4 8 vhcurveto
          40 hlineto
          8 2 4 9 hvcurveto
          37 vlineto
          40 -16 37 -56 -23 -17 -7 -25 -20 vhcurveto
          -26 -20 347 callsubr
          12 vlineto
          9 -3 2 -8 vhcurveto
          -39 hlineto
          -9 -2 -2 -9 hvcurveto
          -39 vlineto
          431 callsubr
          18 6 30 22 vhcurveto
          endchar
        </CharString>
        <CharString name="B">
          53 65 240 callgsubr
          250 hlineto
          104 60 57 105 hvcurveto
          60 vlineto
          68 -38 33 -50 7 vhcurveto
          50 16 29 38 56 vvcurveto
          41 vlineto
          105 -60 57 -105 vhcurveto
          -240 409 callgsubr
          -240 rmoveto
          -7 -4 3 8 hvcurveto
          133 vlineto
          8 4 3 7 vhcurveto
          103 hlineto
          42 19 -16 -42 hvcurveto
          -39 vlineto
          -41 -19 -17 -43 vhcurveto
          -102 -276 rmoveto
          -7 -4 3 8 hvcurveto
          151 vlineto
          8 4 3 7 vhcurveto
          110 hlineto
          45 19 -16 -41 hvcurveto
          -58 vlineto
          -42 -19 -16 -43 vhcurveto
          endchar
        </CharString>
        <CharString name="C">
          36 329 hmoveto
          45 callgsubr
        </CharString>
        <CharString name="CR">
          -282 endchar
        </CharString>
        <CharString name="Cacute">
          36 290 266 callsubr
          -60 -836 rmoveto
          45 callgsubr
        </CharString>
        <CharString name="Ccaron">
          36 310 707 rmoveto
          11 125 callsubr
          -4 hvcurveto
          -32 -66 -33 66 rlineto
          9 -3 -6 3 -8 274 callsubr
          83 -707 rmoveto
          45 callgsubr
        </CharString>
        <CharString name="Ccedilla">
          36 472 411 rmoveto
          15 7 7 15 hvcurveto
          47 vlineto
          105 -61 58 -104 vhcurveto
          -109 27 callgsubr
          32 hlineto
          -40 -47 rlineto
          -21 -19 13 -34 24 hhcurveto
          26 hlineto
          36 9 -4 -20 hvcurveto
          -3 vlineto
          -17 -9 -5 -36 vhcurveto
          -34 hlineto
          -14 -4 -4 -16 hvcurveto
          -19 vlineto
          -14 3 -5 15 vhcurveto
          46 hlineto
          54 40 21 50 hvcurveto
          18 vlineto
          55 -30 20 -44 vhcurveto
          4 vlineto
          40 41 rlineto
          1 hlineto
          296 callsubr
          47 vlineto
          15 -7 7 -15 vhcurveto
          -84 hlineto
          -14 -7 -7 -15 hvcurveto
          -41 186 callgsubr
          -68 112 callgsubr
          305 vlineto
          42 16 17 42 vhcurveto
          68 128 callsubr
          -41 419 callsubr
          endchar
        </CharString>
        <CharString name="D">
          170 callgsubr
          endchar
        </CharString>
        <CharString name="Dcaron">
          170 callgsubr
          -69 597 rmoveto
          65 hlineto
          10 7 4 7 5 hvcurveto
          62 105 rlineto
          7 4 -1 6 -10 413 callsubr
          -5 -3 -9 -4 hvcurveto
          -33 -66 -32 305 callgsubr
        </CharString>
        <CharString name="Dcroat">
          64 347 320 callsubr
          -247 hlineto
          -22 callgsubr
          -208 vlineto
          -9 -3 -3 -8 vhcurveto
          -26 122 callsubr
          -52 vlineto
          -15 4 -5 17 vhcurveto
          26 hlineto
          8 3 -3 -8 hvcurveto
          -277 378 callsubr
          177 vlineto
          8 4 3 7 vhcurveto
          76 402 callgsubr
          -76 hlineto
          -7 -4 3 9 hvcurveto
          108 324 callsubr
        </CharString>
        <CharString name="E">
          -23 -71 callsubr
          endchar
        </CharString>
        <CharString name="Eacute">
          -23 -71 callsubr
          182 836 267 callsubr
        </CharString>
        <CharString name="Ecaron">
          -23 -71 callsubr
          137 707 58 callsubr
          -4 -5 3 -9 hhcurveto
          -58 126 callgsubr
        </CharString>
        <CharString name="Ecircumflex">
          -23 -71 callsubr
          217 825 43 callgsubr
          10 1 331 callgsubr
        </CharString>
        <CharString name="Edieresis">
          -23 -71 callsubr
          199 728 187 callgsubr
        </CharString>
        <CharString name="Edotaccent">
          -20 -71 callsubr
          100 729 390 callsubr
          88 280 callgsubr
          95 vlineto
          14 -7 5 -12 vhcurveto
          -88 356 callgsubr
        </CharString>
        <CharString name="Egrave">
          -23 -71 callsubr
          159 262 callgsubr
        </CharString>
        <CharString name="Emacron">
          -23 -71 callsubr
          262 732 134 callsubr
        </CharString>
        <CharString name="Eogonek">
          -23 413 533 rmoveto
          29 callgsubr
          -327 92 callgsubr
          227 hlineto
          -42 247 callsubr
          40 hlineto
          -46 callgsubr
          endchar
        </CharString>
        <CharString name="Eth">
          64 347 320 callsubr
          -247 hlineto
          -22 callgsubr
          -242 vlineto
          -8 -3 -3 -8 vhcurveto
          -26 122 callsubr
          -52 vlineto
          -15 4 -6 17 vhcurveto
          26 hlineto
          8 3 -3 -8 hvcurveto
          -243 378 callsubr
          143 vlineto
          8 4 3 7 vhcurveto
          76 hlineto
          16 5 6 15 hvcurveto
          52 330 callsubr
          -76 hlineto
          -7 -4 3 8 hvcurveto
          142 324 callsubr
        </CharString>
        <CharString name="Euro">
          45 320 hmoveto
          104 61 57 105 hvcurveto
          20 vlineto
          15 412 callsubr
          -85 hlineto
          -14 -7 -6 -15 hvcurveto
          -18 315 callgsubr
          -23 hlineto
          -43 -19 16 42 hvcurveto
          46 92 vlineto
          18 5 -49 callsubr
          38 279 callsubr
          -92 44 92 hlineto
          18 5 7 16 hvcurveto
          38 279 callsubr
          -92 54 hlineto
          42 19 16 43 vhcurveto
          23 hlineto
          43 16 -16 -42 hvcurveto
          -18 vlineto
          -15 7 -6 14 vhcurveto
          85 419 callgsubr
          20 368 callsubr
          -65 hlineto
          -104 -61 -57 -105 hvcurveto
          -56 -44 vlineto
          361 callsubr
          -38 vlineto
          -16 5 -7 18 vhcurveto
          44 -44 -44 hlineto
          361 callsubr
          -38 vlineto
          -16 5 -8 18 vhcurveto
          44 -48 hlineto
          -105 61 -57 104 vhcurveto
          endchar
        </CharString>
        <CharString name="F">
          -52 171 109 callsubr
          213 32 callgsubr
          171 hlineto
          15 6 7 15 hvcurveto
          67 330 callsubr
          -171 hlineto
          -8 -4 3 9 hvcurveto
          155 32 callgsubr
          201 102 callsubr
          -319 92 callgsubr
          endchar
        </CharString>
        <CharString name="G">
          25 callsubr
          endchar
        </CharString>
        <CharString name="Gbreve">
          25 callsubr
          -63 823 rmoveto
          -11 vlineto
          -69 39 -36 59 vhcurveto
          35 hlineto
          60 38 36 69 hvcurveto
          11 vlineto
          9 -4 4 -10 vhcurveto
          -49 hlineto
          -9 -5 -4 -9 hvcurveto
          -9 vlineto
          -31 -10 -12 -24 vhcurveto
          -8 hlineto
          -24 -10 11 32 hvcurveto
          9 336 callsubr
          endchar
        </CharString>
        <CharString name="H">
          74 171 109 callsubr
          234 32 callgsubr
          169 hlineto
          7 4 -3 -8 hvcurveto
          -234 vlineto
          -16 7 -5 14 vhcurveto
          85 192 callgsubr
          -85 hlineto
          -14 -7 -5 -16 hvcurveto
          -235 vlineto
          -8 -4 -3 -7 vhcurveto
          -169 hlineto
          -8 -4 3 8 hvcurveto
          235 94 callsubr
          endchar
        </CharString>
        <CharString name="I">
          -235 197 622 56 callsubr
          endchar
        </CharString>
        <CharString name="Iacute">
          -235 197 622 56 callsubr
          -33 815 267 callsubr
        </CharString>
        <CharString name="Icircumflex">
          -237 197 622 56 callsubr
          -10 804 rmoveto
          7 -5 -7 4 -10 169 callgsubr
          10 hhcurveto
          58 hlineto
          9 5 3 9 4 hvcurveto
          32 66 33 -66 rlineto
          -9 4 5 430 callgsubr
          10 1 331 callgsubr
        </CharString>
        <CharString name="Idieresis">
          -236 197 622 56 callsubr
          -28 707 187 callsubr
        </CharString>
        <CharString name="Idotaccent">
          -235 70 724 rmoveto
          -14 309 callsubr
          14 hvcurveto
          87 vlineto
          14 -7 5 -13 vhcurveto
          -87 128 callgsubr
          127 -188 56 callsubr
          endchar
        </CharString>
        <CharString name="Igrave">
          -235 197 622 56 callsubr
          -65 796 173 callsubr
          65 hlineto
          14 321 callsubr
        </CharString>
        <CharString name="Imacron">
          -236 197 622 56 callsubr
          35 711 rmoveto
          411 callsubr
          45 330 callsubr
          -197 122 callsubr
          -45 349 callsubr
          endchar
        </CharString>
        <CharString name="Iogonek">
          -235 176 hmoveto
          14 7 5 16 hvcurveto
          601 94 callsubr
          18 hlineto
          -41 247 callsubr
          endchar
        </CharString>
        <CharString name="J">
          19 356 643 rmoveto
          -15 -7 -5 -16 hvcurveto
          -453 366 callsubr
          -59 112 callgsubr
          88 vlineto
          15 412 callsubr
          -85 hlineto
          -14 -7 -6 -15 hvcurveto
          -94 6 callsubr
          100 hlineto
          360 callsubr
          460 vlineto
          15 -7 5 -14 vhcurveto
          endchar
        </CharString>
        <CharString name="K">
          120 callgsubr
          endchar
        </CharString>
        <CharString name="L">
          67 callsubr
          endchar
        </CharString>
        <CharString name="Lacute">
          67 callsubr
          75 836 111 callgsubr
        </CharString>
        <CharString name="Lcaron">
          67 callsubr
          309 624 rmoveto
          14 -8 332 callgsubr
          53 101 rlineto
          12 25 11 20 34 vvcurveto
          endchar
        </CharString>
        <CharString name="Lslash">
          15 451 287 callgsubr
          8 -15 vhcurveto
          -211 hlineto
          -8 -4 3 8 hvcurveto
          232 vlineto
          82 46 rlineto
          13 7 7 10 15 vvcurveto
          67 vlineto
          13 -9 4 -11 -5 vhcurveto
          -82 -46 rlineto
          157 -48 callgsubr
          -230 vlineto
          -63 -35 rlineto
          -14 -8 -6 -10 -13 vvcurveto
          -65 vlineto
          -13 9 -5 11 5 vhcurveto
          63 36 rlineto
          -263 -15 callsubr
          endchar
        </CharString>
        <CharString name="M">
          224 366 276 rmoveto
          -6 hlineto
          -106 353 rlineto
          9 -3 -5 5 -11 hhcurveto
          -149 hlineto
          -11 -10 -5 -16 hvcurveto
          -601 vlineto
          -17 10 -4 11 vhcurveto
          82 hlineto
          17 4 5 16 hvcurveto
          475 4 vlineto
          104 -336 rlineto
          -14 4 6 -6 15 hhcurveto
          84 hlineto
          14 7 7 13 4 hvcurveto
          102 335 rlineto
          4 -474 hlineto
          -16 callsubr
          82 192 callgsubr
          -148 hlineto
          -12 -5 -5 -9 -2 hvcurveto
          endchar
        </CharString>
        <CharString name="N">
          16 callsubr
          endchar
        </CharString>
        <CharString name="NULL">
          -502 endchar
        </CharString>
        <CharString name="Nacute">
          16 callsubr
          233 836 283 callsubr
          -14 hhcurveto
          endchar
        </CharString>
        <CharString name="Ncaron">
          83 269 707 rmoveto
          65 hlineto
          135 callgsubr
          63 -105 rlineto
          -7 5 6 -4 11 hhcurveto
          -100 -707 rmoveto
          22 callsubr
          endchar
        </CharString>
        <CharString name="Ntilde">
          16 callsubr
          222 738 342 callgsubr
          3 4 9 hvcurveto
          37 vlineto
          40 -16 37 -56 -24 -17 -7 263 callgsubr
          12 vlineto
          9 390 callgsubr
          -2 -2 -9 hvcurveto
          -39 vlineto
          -40 16 -36 55 23 19 6 30 21 vhcurveto
          endchar
        </CharString>
        <CharString name="O">
          -41 callgsubr
          endchar
        </CharString>
        <CharString name="OE">
          279 249 380 callsubr
          106 207 callsubr
          -401 vlineto
          -8 -4 -3 -8 vhcurveto
          -292 53 rmoveto
          34 callsubr
          477 hlineto
          15 6 7 14 hvcurveto
          68 330 callsubr
          -201 hlineto
          -7 -4 3 8 hvcurveto
          139 vlineto
          8 4 3 7 vhcurveto
          164 102 callsubr
          -164 hlineto
          -7 -4 3 8 hvcurveto
          130 vlineto
          8 4 3 7 vhcurveto
          201 hlineto
          15 6 7 14 hvcurveto
          68 330 callsubr
          -477 185 callgsubr
          endchar
        </CharString>
        <CharString name="Oacute">
          -41 callgsubr
          -13 726 283 callsubr
          -13 hhcurveto
          endchar
        </CharString>
        <CharString name="Ocircumflex">
          -41 callgsubr
          23 715 43 callgsubr
          10 1 331 callgsubr
        </CharString>
        <CharString name="Odieresis">
          -41 callgsubr
          1 618 -6 callsubr
        </CharString>
        <CharString name="Ograve">
          -41 callgsubr
          -38 707 173 callsubr
          66 hlineto
          13 4 6 15 -7 hvcurveto
          endchar
        </CharString>
        <CharString name="Ohungarumlaut">
          -41 callgsubr
          78 726 rmoveto
          -13 -10 -4 -15 -7 hvcurveto
          -44 -89 rlineto
          -15 -8 232 callgsubr
          -6 6 -14 hhcurveto
          -217 hmoveto
          -12 -10 -4 -15 308 callgsubr
          42 379 callsubr
          endchar
        </CharString>
        <CharString name="Omacron">
          -41 callgsubr
          64 622 134 callsubr
        </CharString>
        <CharString name="Oslash">
          78 388 169 rmoveto
          353 callgsubr
          -80 hlineto
          -27 -16 7 15 -8 hvcurveto
          189 265 rlineto
          -196 77 rmoveto
          42 15 17 43 vhcurveto
          80 hlineto
          28 16 -7 -16 8 hvcurveto
          -190 -267 rlineto
          312 400 rmoveto
          -12 8 -10 -1 -9 -12 -17 -24 rcurveline
          19 -27 -35 10 -43 hhcurveto
          -121 185 callgsubr
          -317 vlineto
          -30 5 -26 9 -22 vhcurveto
          -28 -40 -9 -13 3 -9 11 -8 rlinecurve
          21 -16 12 -7 10 0 9 12 rlinecurve
          17 24 rlineto
          -18 27 35 -10 43 hhcurveto
          121 hlineto
          360 callsubr
          317 vlineto
          29 -5 26 -9 21 vhcurveto
          30 42 8 13 -2 9 -12 8 rlinecurve
          endchar
        </CharString>
        <CharString name="Otilde">
          -41 callgsubr
          -20 628 342 callgsubr
          2 4 9 hvcurveto
          37 vlineto
          40 -16 37 -55 -24 -17 -7 263 callgsubr
          12 vlineto
          9 390 callgsubr
          -3 -2 -9 hvcurveto
          -39 vlineto
          431 callsubr
          19 6 30 21 vhcurveto
          endchar
        </CharString>
        <CharString name="P">
          28 203 332 rmoveto
          -7 -4 3 8 hvcurveto
          179 vlineto
          8 4 3 7 vhcurveto
          106 hlineto
          43 15 -17 -42 hvcurveto
          -84 vlineto
          -41 -15 -17 -43 vhcurveto
          -138 -332 313 callsubr
          189 32 callgsubr
          126 hlineto
          360 callsubr
          96 391 callsubr
          -244 92 callgsubr
          endchar
        </CharString>
        <CharString name="Q">
          67 432 -133 rmoveto
          14 10 10 16 -8 hvcurveto
          -64 111 rlineto
          77 14 44 56 89 vvcurveto
          317 283 callgsubr
          -105 vhcurveto
          -112 27 callgsubr
          27 hlineto
          65 -112 rlineto
          -14 8 8 -7 23 hhcurveto
          -110 243 rmoveto
          431 callgsubr
          305 vlineto
          42 15 17 43 vhcurveto
          71 128 callsubr
          -305 186 callgsubr
          endchar
        </CharString>
        <CharString name="R">
          45 203 -35 callsubr
          endchar
        </CharString>
        <CharString name="Racute">
          45 203 -35 callsubr
          200 836 111 callgsubr
        </CharString>
        <CharString name="Rcaron">
          45 203 -35 callsubr
          145 707 rmoveto
          65 hlineto
          11 7 4 7 5 hvcurveto
          62 105 rlineto
          7 4 -2 6 -9 hhcurveto
          -60 hlineto
          -9 -5 433 callgsubr
          -32 -66 -33 66 rlineto
          9 -3 -6 3 -8 hhcurveto
          -59 126 callgsubr
        </CharString>
        <CharString name="S">
          37 49 164 -17 callgsubr
        </CharString>
        <CharString name="Sacute">
          37 282 266 callsubr
          -332 -672 -17 callgsubr
        </CharString>
        <CharString name="Scaron">
          37 295 707 rmoveto
          135 callgsubr
          62 -105 rlineto
          -7 5 7 -4 11 hhcurveto
          -181 -543 -17 callgsubr
        </CharString>
        <CharString name="T">
          37 callgsubr
          endchar
        </CharString>
        <CharString name="Tcaron">
          37 callgsubr
          11 707 58 callsubr
          -4 -5 3 -9 hhcurveto
          -58 hlineto
          -10 397 callsubr
          endchar
        </CharString>
        <CharString name="Thorn">
          2 185 109 callsubr
          99 32 callgsubr
          83 hlineto
          296 callsubr
          53 vlineto
          105 -61 58 -104 vhcurveto
          -83 hlineto
          -8 -4 3 8 hvcurveto
          101 94 callsubr
          117 242 rmoveto
          -7 -4 3 8 hvcurveto
          136 vlineto
          8 4 3 7 vhcurveto
          63 hlineto
          43 15 -17 -42 hvcurveto
          -41 vlineto
          -42 -15 -16 -43 vhcurveto
          endchar
        </CharString>
        <CharString name="U">
          -42 callsubr
          endchar
        </CharString>
        <CharString name="Uacute">
          -42 callsubr
          -169 193 111 callgsubr
        </CharString>
        <CharString name="Ucircumflex">
          -42 callsubr
          -141 182 rmoveto
          7 -5 -6 4 -11 169 callgsubr
          10 hhcurveto
          58 hlineto
          9 5 3 9 4 hvcurveto
          32 66 33 -66 rlineto
          -9 4 5 -3 435 callgsubr
          10 2 331 callgsubr
        </CharString>
        <CharString name="Udieresis">
          -42 callsubr
          -162 85 -6 callsubr
        </CharString>
        <CharString name="Ugrave">
          -42 callsubr
          -200 174 rmoveto
          14 -8 -9 5 -13 hhcurveto
          -99 hlineto
          -13 -6 242 callsubr
        </CharString>
        <CharString name="Uhungarumlaut">
          -42 callsubr
          -88 193 164 callsubr
        </CharString>
        <CharString name="Umacron">
          -42 callsubr
          -99 89 134 callsubr
        </CharString>
        <CharString name="Uogonek">
          58 394 643 rmoveto
          -22 callgsubr
          -453 186 callgsubr
          -69 112 callgsubr
          453 -48 callgsubr
          -459 6 callsubr
          40 hlineto
          -41 247 callsubr
          9 hlineto
          296 callsubr
          460 vlineto
          15 434 callgsubr
          endchar
        </CharString>
        <CharString name="Uring">
          -42 callsubr
          -207 107 rmoveto
          -17 -5 6 19 hvcurveto
          26 vlineto
          20 6 271 callgsubr
          -34 -20 -19 -33 hvcurveto
          -64 vlineto
          -35 20 -19 34 vhcurveto
          endchar
        </CharString>
        <CharString name="V">
          19 327 hmoveto
          12 8 5 16 4 hvcurveto
          155 599 rlineto
          14 3 -7 9 -16 hhcurveto
          -94 hlineto
          -15 -6 -5 -16 -3 hvcurveto
          -105 -492 rlineto
          -4 hlineto
          -105 492 rlineto
          16 -3 -6 5 -15 hhcurveto
          -94 hlineto
          -17 -7 -9 -14 4 hvcurveto
          155 -599 rlineto
          -16 3 9 -5 13 hhcurveto
          endchar
        </CharString>
        <CharString name="W">
          305 287 hmoveto
          12 9 6 15 3 hvcurveto
          91 469 rlineto
          4 hlineto
          90 -469 rlineto
          -14 2 8 -7 14 hhcurveto
          141 hlineto
          14 7 7 14 2 hvcurveto
          108 600 rlineto
          14 2 -7 8 -16 hhcurveto
          -104 hlineto
          -14 -9 -7 -15 -1 hvcurveto
          -57 -492 rlineto
          -8 hlineto
          -98 497 rlineto
          13 -2 -9 4 -11 hhcurveto
          -112 hlineto
          -9 -10 -4 -14 -2 hvcurveto
          -96 -496 rlineto
          -7 hlineto
          -58 493 rlineto
          17 -1 -9 4 -14 hhcurveto
          -104 hlineto
          -15 -8 -7 -14 2 hvcurveto
          107 -601 rlineto
          -16 2 9 -5 14 hhcurveto
          endchar
        </CharString>
        <CharString name="X">
          38 371 20 rmoveto
          -15 6 10 -5 13 hhcurveto
          100 hlineto
          14 7 10 13 -7 hvcurveto
          -155 306 152 291 rlineto
          10 5 -6 13 -14 hhcurveto
          -98 hlineto
          -14 -10 -5 -16 -8 hvcurveto
          -94 -215 rlineto
          -4 hlineto
          -95 215 rlineto
          16 -6 -13 5 -14 hhcurveto
          -96 hlineto
          -13 -7 -11 -11 6 hvcurveto
          150 -292 -155 -307 rlineto
          -12 -6 7 -10 13 hhcurveto
          99 hlineto
          14 9 5 15 7 hvcurveto
          100 216 rlineto
          4 hlineto
          endchar
        </CharString>
        <CharString name="Y">
          70 callsubr
          endchar
        </CharString>
        <CharString name="Yacute">
          70 callsubr
          68 836 rmoveto
          -13 -9 408 callsubr
          -8 5 377 callgsubr
          -6 441 callsubr
        </CharString>
        <CharString name="Ydieresis">
          70 callsubr
          78 728 -6 callsubr
        </CharString>
        <CharString name="Z">
          16 callgsubr
          endchar
        </CharString>
        <CharString name="Zacute">
          16 callgsubr
          259 755 111 callgsubr
        </CharString>
        <CharString name="Zcaron">
          16 callgsubr
          200 626 20 callsubr
        </CharString>
        <CharString name="Zdotaccent">
          16 callgsubr
          173 648 rmoveto
          -14 309 callsubr
          14 hvcurveto
          95 388 callsubr
        </CharString>
        <CharString name="a">
          -51 callsubr
          endchar
        </CharString>
        <CharString name="aacute">
          -51 callsubr
          91 259 callgsubr
        </CharString>
        <CharString name="abreve">
          16 161 323 callgsubr
          -9 -5 -4 -9 hvcurveto
          -9 vlineto
          -31 -11 -12 -23 vhcurveto
          -8 hlineto
          -24 -10 11 32 hvcurveto
          9 336 callsubr
          73 -690 rmoveto
          69 callsubr
          -16 7 -5 14 vhcurveto
          84 398 callsubr
          -231 -29 callgsubr
          126 186 rmoveto
          228 callgsubr
          -37 47 callgsubr
          endchar
        </CharString>
        <CharString name="acircumflex">
          -51 callsubr
          114 692 43 callgsubr
          10 1 331 callgsubr
        </CharString>
        <CharString name="acute">
          -204 132 165 callgsubr
        </CharString>
        <CharString name="adieresis">
          -51 callsubr
          101 595 -6 callsubr
        </CharString>
        <CharString name="ae">
          253 324 178 rmoveto
          -52 -18 -24 -51 vhcurveto
          -28 hlineto
          -50 -17 17 45 hvcurveto
          9 vlineto
          42 15 17 52 vhcurveto
          85 207 callsubr
          280 70 rmoveto
          -8 -4 -3 -8 vhcurveto
          -131 hlineto
          -7 -4 3 8 hvcurveto
          51 vlineto
          42 17 16 43 vhcurveto
          35 128 callsubr
          -154 -158 rmoveto
          7 4 4 8 vhcurveto
          231 419 callgsubr
          132 391 callsubr
          -44 hlineto
          -42 -51 -9 -46 -26 hvcurveto
          46 -26 -58 9 -42 hhcurveto
          -159 hlineto
          -15 234 callsubr
          -68 vlineto
          -14 5 -7 15 vhcurveto
          163 hlineto
          39 19 -14 -43 hvcurveto
          -13 vlineto
          -5 -2 -3 -5 vhcurveto
          -110 hlineto
          -105 -60 -50 -105 hvcurveto
          -11 vlineto
          -101 63 -55 102 vhcurveto
          16 hlineto
          60 56 14 43 25 hvcurveto
          -39 28 37 -18 60 hhcurveto
          205 218 callsubr
          -6 7 -15 vhcurveto
          -184 hlineto
          -43 -16 17 42 hvcurveto
          endchar
        </CharString>
        <CharString name="agrave">
          -51 callsubr
          75 371 callsubr
          81 -96 rlineto
          -8 7 413 callgsubr
          65 hlineto
          14 321 callsubr
        </CharString>
        <CharString name="amacron">
          -51 callsubr
          171 124 callsubr
        </CharString>
        <CharString name="ampersand">
          116 429 14 rmoveto
          -10 8 14 -4 13 hhcurveto
          107 hlineto
          10 2 10 8 -6 hvcurveto
          -163 194 rlineto
          130 hlineto
          16 5 6 15 hvcurveto
          68 393 callgsubr
          -222 hlineto
          -47 54 rlineto
          -23 26 -21 32 31 vvcurveto
          13 vlineto
          42 17 16 38 vhcurveto
          8 hlineto
          34 16 -16 -42 hvcurveto
          -32 vlineto
          -15 7 -7 313 callgsubr
          7 15 hvcurveto
          34 368 callsubr
          -33 hlineto
          -104 -69 -57 -105 hvcurveto
          -11 vlineto
          -47 14 -37 25 -33 vhcurveto
          -68 -8 -33 -63 -62 vvcurveto
          -58 vlineto
          -105 60 -57 105 vhcurveto
          61 hlineto
          70 36 19 47 15 hvcurveto
          -163 45 rmoveto
          -43 -19 16 42 hvcurveto
          43 vlineto
          48 11 18 32 1 vhcurveto
          109 -128 rlineto
          -29 -4 -15 -11 -29 hhcurveto
          endchar
        </CharString>
        <CharString name="aogonek">
          16 336 186 rmoveto
          228 callgsubr
          -37 47 callgsubr
          -126 121 rmoveto
          339 callsubr
          -184 6 callsubr
          24 hlineto
          69 callsubr
          -3 vlineto
          -37 -71 rlineto
          -24 -15 -3 -41 33 hhcurveto
          27 62 12 31 3 hvcurveto
          4 13 -6 5 -13 -1 rrcurveto
          -2 -36 -3 -7 -5 26 47 16 10 vhcurveto
          62 381 callsubr
        </CharString>
        <CharString name="apostrophemod">
          -317 149 624 49 callgsubr
          endchar
        </CharString>
        <CharString name="approxequal">
          63 178 381 rmoveto
          65 68 -32 73 hhcurveto
          35 28 7 8 285 callgsubr
          -29 -48 -79 -60 31 -67 hhcurveto
          -35 -28 -7 -8 -20 hvcurveto
          -20 -8 -8 -9 -20 vvcurveto
          -59 vlineto
          -8 6 -5 428 callsubr
          -182 vmoveto
          65 68 -32 73 hhcurveto
          35 28 7 8 285 callgsubr
          -30 -48 -79 -60 32 -67 hhcurveto
          -35 -28 -7 -8 -20 hvcurveto
          -20 -8 -8 -9 -20 vvcurveto
          -59 vlineto
          -8 6 -5 428 callsubr
          endchar
        </CharString>
        <CharString name="aring">
          16 191 607 rmoveto
          -32 17 260 callsubr
          -17 -15 -31 hvcurveto
          43 -21 rmoveto
          23 7 5 20 vhcurveto
          17 335 callgsubr
          -16 hlineto
          -20 -7 6 21 hvcurveto
          -624 vmoveto
          69 callsubr
          -16 7 -5 14 vhcurveto
          84 398 callsubr
          -231 -29 callgsubr
          126 186 rmoveto
          228 callgsubr
          -37 47 callgsubr
          endchar
        </CharString>
        <CharString name="asciicircum">
          9 345 382 rmoveto
          -14 7 6 -6 14 hhcurveto
          77 hlineto
          14 9 6 15 -8 hvcurveto
          -120 229 rlineto
          24 -12 -9 7 -23 hhcurveto
          -90 hlineto
          -23 -9 -7 -24 -12 hvcurveto
          -120 -229 rlineto
          -15 -8 9 -6 14 hhcurveto
          77 hlineto
          14 6 6 14 7 hvcurveto
          90 179 rlineto
          endchar
        </CharString>
        <CharString name="asciitilde">
          63 178 289 rmoveto
          65 68 -31 73 hhcurveto
          35 28 6 9 285 callgsubr
          -30 -48 -79 -60 32 -67 hhcurveto
          -35 -28 -7 -8 -20 hvcurveto
          -20 -9 -8 -8 -21 vvcurveto
          -58 vlineto
          -8 6 -6 428 callsubr
          endchar
        </CharString>
        <CharString name="asterisk">
          -104 242 624 rmoveto
          14 -7 5 -13 vhcurveto
          -50 hlineto
          -13 -7 -5 -14 hvcurveto
          -9 vlineto
          -69 47 -60 1 -2 vhcurveto
          1 2 41 60 69 vvcurveto
          -159 -220 rmoveto
          -9 -11 3 -10 11 -6 40 -30 rcurveline
          11 -7 10 0 7 10 5 8 rcurveline
          41 56 -3 76 1 3 -3 -2 -68 -24 -41 -56 rrcurveto
          -8 164 rmoveto
          -14 5 -7 -5 -4 -12 -15 -48 rcurveline
          -4 -12 3 -9 12 -4 9 -3 rcurveline
          -21 66 71 27 3 hhcurveto
          -2 1 -44 57 -67 22 rrcurveto
          259 -77 rmoveto
          14 4 3 9 -4 12 -15 48 rcurveline
          -5 12 -7 5 -13 -4 -9 -3 rcurveline
          -67 -20 -41 -65 -2 -1 3 -1 69 -21 66 22 rrcurveto
          -90 -138 rmoveto
          9 -11 8 0 11 7 41 29 rcurveline
          10 7 1 10 -7 10 -5 8 rcurveline
          -41 56 -73 20 -2 2 rrcurveto
          -3 -1 -74 44 -55 vhcurveto
          endchar
        </CharString>
        <CharString name="at">
          244 440 253 rmoveto
          -44 -14 -32 -55 vhcurveto
          -3 hlineto
          -43 -15 17 41 hvcurveto
          71 vlineto
          42 15 17 43 vhcurveto
          60 340 callsubr
          -9 hvcurveto
          -146 250 rmoveto
          -140 -97 -109 -133 hvcurveto
          -183 vlineto
          -142 107 -94 148 vhcurveto
          179 hlineto
          16 394 callgsubr
          30 421 callsubr
          -180 hlineto
          -109 -73 64 114 hvcurveto
          161 vlineto
          114 64 64 109 vhcurveto
          189 hlineto
          73 61 -38 -79 hvcurveto
          -190 vlineto
          -47 -22 -19 -42 -1 vhcurveto
          -8 -11 3 9 hvcurveto
          270 154 callsubr
          -173 hlineto
          -87 -61 -58 -105 hvcurveto
          -59 vlineto
          -105 61 -50 77 37 44 13 42 18 vhcurveto
          4 -4 hlineto
          -36 33 -15 33 vhcurveto
          58 hlineto
          77 57 54 78 hvcurveto
          206 vlineto
          104 -82 78 -117 vhcurveto
          endchar
        </CharString>
        <CharString name="atilde">
          -51 callsubr
          -57 214 callsubr
          -20 -5 -6 -7 405 callgsubr
          -39 hlineto
          -9 -2 -2 -10 hvcurveto
          endchar
        </CharString>
        <CharString name="b">
          24 55 240 callgsubr
          240 hlineto
          105 60 58 105 hvcurveto
          186 vlineto
          105 -60 411 callgsubr
          -37 -45 -16 -39 -16 hvcurveto
          -4 225 63 callsubr
          138 -572 rmoveto
          -7 -4 3 8 hvcurveto
          205 vlineto
          43 14 33 55 vhcurveto
          44 128 callsubr
          -174 186 callgsubr
          endchar
        </CharString>
        <CharString name="backslash">
          -93 259 21 rmoveto
          -16 6 7 -5 14 hhcurveto
          77 hlineto
          14 8 6 15 -6 hvcurveto
          -64 165 -100 271 -64 165 rrcurveto
          14 -6 -6 7 -15 hhcurveto
          -78 hlineto
          -14 -7 -6 -15 6 hvcurveto
          endchar
        </CharString>
        <CharString name="bar">
          -271 159 622 rmoveto
          16 -8 5 -14 vhcurveto
          -43 92 callgsubr
          43 hlineto
          14 8 5 16 hvcurveto
          endchar
        </CharString>
        <CharString name="braceleft">
          -187 235 643 rmoveto
          -102 -47 -58 -105 hvcurveto
          -101 vlineto
          -40 -15 -13 -27 -16 -5 -8 -14 vhcurveto
          -67 vlineto
          -15 5 -7 16 27 15 -13 -40 vhcurveto
          -101 vlineto
          -105 47 -58 102 vhcurveto
          8 hlineto
          322 callgsubr
          47 vlineto
          14 -5 7 -15 vhcurveto
          -3 hlineto
          -42 -12 17 42 hvcurveto
          126 vlineto
          53 -18 33 -44 12 vhcurveto
          47 15 15 31 53 vvcurveto
          126 vlineto
          42 12 17 42 vhcurveto
          3 hlineto
          322 callgsubr
          47 vlineto
          14 -5 7 -15 vhcurveto
          endchar
        </CharString>
        <CharString name="braceright">
          -187 201 480 rmoveto
          105 -48 58 -102 vhcurveto
          -7 122 callsubr
          -47 349 callsubr
          3 hlineto
          41 12 -17 -42 hvcurveto
          -126 vlineto
          -53 16 -31 46 -15 vhcurveto
          -44 -12 -18 -33 -53 vvcurveto
          -126 vlineto
          -42 -12 -17 -41 vhcurveto
          -3 122 callsubr
          -47 349 callsubr
          7 hlineto
          102 48 58 105 hvcurveto
          101 vlineto
          40 14 13 28 15 5 7 15 vhcurveto
          67 vlineto
          14 -5 8 -15 -28 -14 13 40 vhcurveto
          endchar
        </CharString>
        <CharString name="bracketleft">
          -179 241 -98 rmoveto
          322 callgsubr
          43 vlineto
          14 -5 7 -15 vhcurveto
          -50 hlineto
          -8 -4 3 9 hvcurveto
          547 vlineto
          9 4 3 8 vhcurveto
          50 hlineto
          322 callgsubr
          43 vlineto
          14 -5 7 -15 vhcurveto
          -144 hlineto
          -15 234 callsubr
          -698 vlineto
          -15 5 -7 15 vhcurveto
          endchar
        </CharString>
        <CharString name="bracketright">
          -179 60 -77 312 callsubr
          143 hlineto
          15 5 7 15 hvcurveto
          698 vlineto
          14 -5 7 -15 vhcurveto
          -143 122 callsubr
          -43 349 callsubr
          50 hlineto
          7 4 -3 -9 hvcurveto
          -547 vlineto
          -9 -4 -3 -7 vhcurveto
          -50 122 callsubr
          endchar
        </CharString>
        <CharString name="breve">
          -164 53 323 callgsubr
          -10 272 callgsubr
        </CharString>
        <CharString name="brokenbar">
          -272 158 251 rmoveto
          1 callgsubr
          -44 hlineto
          -22 callgsubr
          -230 -15 callsubr
          44 153 callsubr
          601 vmoveto
          1 callgsubr
          -44 hlineto
          -22 callgsubr
          -230 -15 callsubr
          44 153 callsubr
          endchar
        </CharString>
        <CharString name="bullet">
          -208 235 351 rmoveto
          44 -27 26 -45 vhcurveto
          -33 hlineto
          -46 -26 -26 -44 hvcurveto
          -61 vlineto
          -45 26 -25 46 vhcurveto
          33 hlineto
          45 27 25 45 hvcurveto
          endchar
        </CharString>
        <CharString name="c">
          75 callsubr
          endchar
        </CharString>
        <CharString name="cacute">
          75 callsubr
          -125 683 424 callsubr
          -8 5 342 callsubr
        </CharString>
        <CharString name="caron">
          -157 140 190 callsubr
        </CharString>
        <CharString name="ccaron">
          75 callsubr
          -172 554 20 callsubr
        </CharString>
        <CharString name="ccedilla">
          -91 359 400 rmoveto
          193 callgsubr
          -6 7 -15 vhcurveto
          -149 -29 callgsubr
          14 hlineto
          -33 -39 rlineto
          -21 -18 12 -34 24 hhcurveto
          26 hlineto
          36 9 -4 -20 hvcurveto
          -2 vlineto
          -18 -8 -5 -37 vhcurveto
          -33 hlineto
          -15 -4 -4 -15 hvcurveto
          -20 vlineto
          -14 3 -4 16 231 callgsubr
          33 33 rlineto
          59 218 callsubr
          -6 7 -15 vhcurveto
          -129 112 callgsubr
          172 vlineto
          42 16 17 42 vhcurveto
          endchar
        </CharString>
        <CharString name="cedilla">
          -236 62 -39 rmoveto
          195 callsubr
          3 -4 15 231 callgsubr
          53 53 rlineto
          -78 hlineto
          endchar
        </CharString>
        <CharString name="cent">
          -72 287 -94 rmoveto
          12 7 5 14 hvcurveto
          75 63 vlineto
          15 7 7 14 hvcurveto
          69 vlineto
          13 -7 7 -15 vhcurveto
          -139 112 callgsubr
          172 vlineto
          42 16 17 42 vhcurveto
          139 hlineto
          15 7 7 13 hvcurveto
          69 vlineto
          14 -24 7 -14 vhcurveto
          -47 78 hlineto
          13 -7 6 -12 vhcurveto
          -63 hlineto
          -13 -7 -7 -13 hvcurveto
          -77 -7 vlineto
          -97 -55 -62 -101 hvcurveto
          -184 vlineto
          -101 55 -62 97 vhcurveto
          7 -74 hlineto
          -14 7 -6 13 vhcurveto
          endchar
        </CharString>
        <CharString name="circumflex">
          -157 227 202 callsubr
        </CharString>
        <CharString name="colon">
          -298 166 144 145 callgsubr
          470 vmoveto
          14 -7 5 -12 vhcurveto
          -89 128 callgsubr
          -120 vlineto
          -14 6 -9 218 callgsubr
          endchar
        </CharString>
        <CharString name="comma">
          268 callgsubr
          -230 426 callgsubr
          69 101 rlineto
          15 23 8 17 22 vvcurveto
          endchar
        </CharString>
        <CharString name="copyright">
          201 189 643 rmoveto
          -78 -48 -46 -78 hvcurveto
          -395 vlineto
          -78 48 -46 78 vhcurveto
          326 hlineto
          78 48 46 78 hvcurveto
          395 vlineto
          78 -48 46 -78 vhcurveto
          -301 -569 rmoveto
          -49 -22 17 49 hvcurveto
          363 vlineto
          49 22 17 49 vhcurveto
          275 hlineto
          49 22 -17 -49 hvcurveto
          -363 vlineto
          -49 -22 -17 -49 vhcurveto
          1 329 rmoveto
          70 -40 36 -69 vhcurveto
          -52 hlineto
          -69 -41 -36 -70 hvcurveto
          -162 vlineto
          -69 41 -37 69 vhcurveto
          52 hlineto
          69 40 37 69 hvcurveto
          29 vlineto
          10 -4 4 -9 vhcurveto
          -53 hlineto
          -9 -5 -4 -10 hvcurveto
          -14 vlineto
          -47 -6 -4 -47 vhcurveto
          -5 hlineto
          -46 -6 4 47 hvcurveto
          133 vlineto
          46 6 4 46 vhcurveto
          5 hlineto
          47 6 -4 -46 hvcurveto
          -14 vlineto
          -10 5 -3 9 vhcurveto
          53 hlineto
          9 4 3 10 hvcurveto
          endchar
        </CharString>
        <CharString name="d">
          24 110 callsubr
          endchar
        </CharString>
        <CharString name="dagger">
          -94 215 hmoveto
          14 8 5 16 2 hvcurveto
          9 61 17 156 83 vvcurveto
          26 -6 34 182 callgsubr
          108 17 rlineto
          -11 -26 -5 -34 -25 vvcurveto
          -83 17 -156 9 -61 vhcurveto
          -16 2 7 -5 15 hhcurveto
          endchar
        </CharString>
        <CharString name="daggerdbl">
          -94 155 406 rmoveto
          -11 -26 -5 -35 -25 vvcurveto
          -26 5 -34 11 -25 vhcurveto
          -109 16 rlineto
          -16 3 -5 -10 -14 vvcurveto
          -71 vlineto
          -14 5 -7 16 3 vhcurveto
          111 17 -19 -137 rlineto
          -16 -3 10 -5 14 hhcurveto
          127 callsubr
          -20 138 117 -18 rlineto
          15 -3 6 7 14 vvcurveto
          71 vlineto
          14 -6 10 -15 -3 vhcurveto
          -114 -17 rlineto
          11 25 6 35 26 vvcurveto
          26 -6 35 182 callgsubr
          endchar
        </CharString>
        <CharString name="danda">
          -193 116 23 210 callgsubr
          endchar
        </CharString>
        <CharString name="dcaron">
          132 110 callsubr
          434 684 rmoveto
          14 -7 332 callgsubr
          52 101 rlineto
          13 25 10 20 34 vvcurveto
          endchar
        </CharString>
        <CharString name="dcroat">
          61 344 186 rmoveto
          228 callgsubr
          -45 hlineto
          431 callgsubr
          119 312 callgsubr
          45 hlineto
          55 14 -32 -43 hvcurveto
          -102 -271 rmoveto
          69 callsubr
          345 callgsubr
          501 vlineto
          9 4 3 8 vhcurveto
          54 402 callgsubr
          -54 hlineto
          -8 -4 3 9 hvcurveto
          43 -48 callgsubr
          -43 vlineto
          -9 -4 -3 -8 vhcurveto
          -130 hlineto
          -15 234 callsubr
          -52 vlineto
          -15 4 -5 16 vhcurveto
          130 340 callsubr
          -9 hvcurveto
          -120 -4 vlineto
          39 -16 -45 16 -37 hhcurveto
          -32 185 callgsubr
          -131 6 callsubr
          endchar
        </CharString>
        <CharString name="degree">
          -123 196 557 rmoveto
          -14 hlineto
          -18 -4 4 17 hvcurveto
          56 vlineto
          19 4 3 18 vhcurveto
          14 hlineto
          17 5 -3 -19 hvcurveto
          -56 vlineto
          -17 -5 -4 -17 vhcurveto
          24 -47 rmoveto
          30 20 18 31 hvcurveto
          97 vlineto
          30 -20 17 -30 vhcurveto
          -62 hlineto
          -31 -18 -17 -30 hvcurveto
          -97 vlineto
          -31 18 -18 31 vhcurveto
          endchar
        </CharString>
        <CharString name="dieresis">
          -86 243 595 150 callgsubr
          -190 -88 150 callgsubr
          endchar
        </CharString>
        <CharString name="divide">
          -38 190 432 rmoveto
          -15 25 callgsubr
          43 hlineto
          14 8 5 15 hvcurveto
          49 vlineto
          16 -8 5 -14 vhcurveto
          -43 hlineto
          -22 callgsubr
          183 -203 rmoveto
          322 callgsubr
          43 vlineto
          14 -5 7 -15 vhcurveto
          -281 122 callsubr
          -43 349 callsubr
          98 -118 rmoveto
          -16 callsubr
          43 hlineto
          14 8 5 16 hvcurveto
          49 vlineto
          15 -8 5 -14 vhcurveto
          -43 hlineto
          -14 -7 -5 -15 hvcurveto
          endchar
        </CharString>
        <CharString name="dollar">
          25 296 -98 313 callsubr
          77 2 vlineto
          100 62 60 104 hvcurveto
          38 vlineto
          137 -85 30 -81 7 vhcurveto
          -38 3 rlineto
          -59 5 -45 7 46 vvcurveto
          20 vlineto
          60 16 16 54 vhcurveto
          32 hlineto
          54 16 -15 -51 hvcurveto
          -7 vlineto
          -15 7 -6 14 vhcurveto
          85 419 callgsubr
          19 vlineto
          101 -58 63 -95 vhcurveto
          -2 79 hlineto
          1 callgsubr
          -60 hlineto
          -22 callgsubr
          -79 -7 vlineto
          -103 -59 -59 -105 hvcurveto
          -37 vlineto
          -146 88 -24 84 -8 vhcurveto
          33 -3 rlineto
          58 -5 45 -8 -52 vvcurveto
          -15 vlineto
          -55 -18 -16 -52 vhcurveto
          -40 hlineto
          -53 -17 15 51 hvcurveto
          7 -48 callgsubr
          -19 vlineto
          -103 60 -61 101 vhcurveto
          7 -77 hlineto
          -16 callsubr
          endchar
        </CharString>
        <CharString name="dotaccent">
          -268 53 591 rmoveto
          346 callgsubr
          96 388 callsubr
        </CharString>
        <CharString name="dotlessi">
          -246 64 52 callsubr
          endchar
        </CharString>
        <CharString name="dottedcircle">
          158 139 517 rmoveto
          -26 18 -19 26 26 18 19 26 25 -18 19 -26 -26 -18 -19 -25 vhcurveto
          -82 -110 rmoveto
          -25 20 -19 26 24 20 19 25 25 -20 19 -24 -26 -20 -19 -25 vhcurveto
          -13 -126 rmoveto
          -25 19 -18 25 26 18 18 438 callsubr
          52 -116 rmoveto
          -26 18 -18 26 25 19 18 26 25 -19 19 -25 -26 -18 -19 -25 vhcurveto
          101 -75 rmoveto
          -26 19 -20 26 25 19 20 26 24 -19 20 -25 -26 -19 -20 -24 vhcurveto
          127 -16 rmoveto
          -26 18 -18 26 26 19 18 26 26 -19 18 -26 -26 -18 -18 -26 vhcurveto
          121 53 rmoveto
          -26 19 -18 25 25 20 18 26 25 -20 19 -25 -25 -19 -19 -25 vhcurveto
          73 98 rmoveto
          -25 19 -19 26 24 19 19 25 26 -19 19 -24 -26 -19 -19 -26 vhcurveto
          10 134 rmoveto
          -26 18 -18 26 25 19 18 26 26 -19 18 -25 -26 -18 -18 -26 vhcurveto
          -50 118 rmoveto
          -25 19 -19 25 26 18 19 438 callsubr
          -95 68 rmoveto
          -24 19 -20 26 25 18 20 24 26 -18 19 -25 -26 -19 -19 -26 vhcurveto
          -126 15 rmoveto
          -26 18 -18 26 26 18 18 26 26 -18 18 -26 -26 -18 -18 -26 vhcurveto
          endchar
        </CharString>
        <CharString name="doubledanda">
          44 116 23 210 callgsubr
          237 -577 210 callgsubr
          endchar
        </CharString>
        <CharString name="dvA">
          107 477 623 rmoveto
          -11 callgsubr
          54 hlineto
          18 6 -101 callsubr
          -6 7 -18 vhcurveto
          endchar
        </CharString>
        <CharString name="dvAA">
          344 477 623 rmoveto
          -11 callgsubr
          96 hlineto
          8 4 -5 -9 hvcurveto
          -482 vlineto
          -17 8 -6 16 vhcurveto
          69 -107 callsubr
          endchar
        </CharString>
        <CharString name="dvAI">
          18 470 623 rmoveto
          -15 -4 6 13 -8 hvcurveto
          -140 233 47 callsubr
          41 -63 33 -39 53 -52 rlinecurve
          -362 hlineto
          -28 callgsubr
          53 365 callsubr
          -283 vlineto
          -110 71 -85 129 vhcurveto
          153 hlineto
          200 callgsubr
          57 vlineto
          16 -7 8 -17 vhcurveto
          -128 hlineto
          -73 -37 33 61 hvcurveto
          278 366 callgsubr
          156 365 callsubr
          -85 vlineto
          -49 -25 -13 -48 vhcurveto
          -16 hlineto
          -16 -8 -7 -16 hvcurveto
          -55 117 callsubr
          33 hlineto
          109 62 56 108 hvcurveto
          85 366 callgsubr
          41 -92 callsubr
          endchar
        </CharString>
        <CharString name="dvAU">
          344 798 623 rmoveto
          259 callsubr
          -14 vlineto
          -63 17 -78 35 -78 83 callsubr
          53 -41 rlinecurve
          -4 -183 vlineto
          -11 callgsubr
          96 hlineto
          8 4 -5 -9 hvcurveto
          -482 vlineto
          -17 8 -6 16 vhcurveto
          69 -107 callsubr
          endchar
        </CharString>
        <CharString name="dvAbbreviationsign">
          -58 402 307 rmoveto
          27 vlineto
          98 -56 53 -99 vhcurveto
          -46 hlineto
          -99 -56 -53 -98 hvcurveto
          -27 vlineto
          -98 56 -53 99 vhcurveto
          46 hlineto
          99 56 53 98 hvcurveto
          -240 4 rmoveto
          19 vlineto
          44 12 16 48 vhcurveto
          4 hlineto
          48 13 -16 -44 hvcurveto
          -19 vlineto
          -44 -13 -16 -48 vhcurveto
          -4 hlineto
          -48 -12 16 44 hvcurveto
          endchar
        </CharString>
        <CharString name="dvAcandra">
          107 477 623 rmoveto
          -11 callgsubr
          54 hlineto
          18 6 -101 callsubr
          -6 7 -18 vhcurveto
          -28 245 rmoveto
          344 callsubr
          -63 44 callsubr
          107 hlineto
          78 39 49 84 hvcurveto
          3 vlineto
          22 -10 12 -19 vhcurveto
          endchar
        </CharString>
        <CharString name="dvAnusvara">
          -502 -60 203 callsubr
          endchar
        </CharString>
        <CharString name="dvAnusvara.amI">
          -502 155 203 callsubr
          endchar
        </CharString>
        <CharString name="dvAvagraha">
          44 482 201 rmoveto
          100 -46 26 -75 31 vhcurveto
          -80 33 -66 14 62 vvcurveto
          43 25 9 43 vhcurveto
          141 -105 callgsubr
          -164 hlineto
          -118 -45 -41 -116 -104 51 -44 76 -34 hvcurveto
          74 -33 67 -1 -57 vvcurveto
          -21 vlineto
          -45 -17 -21 -47 vhcurveto
          -69 hlineto
          -58 -12 41 20 -18 hvcurveto
          7 -6 -6 4 -8 hhcurveto
          -5 -4 -1 -8 -10 hvcurveto
          -32 -24 rlineto
          -11 -8 -5 -7 -10 vvcurveto
          -5 2 -5 1 -2 vhcurveto
          -46 25 47 -62 99 hhcurveto
          91 hlineto
          97 63 61 98 hvcurveto
          endchar
        </CharString>
        <CharString name="dvB">
          -220 222 169 rmoveto
          127 callgsubr
          96 112 rmoveto
          -16 -8 -6 -18 hvcurveto
          -16 -11 callsubr
          95 58 61 121 hvcurveto
          6 -87 callgsubr
          -397 342 -45 callsubr
          417 -77 callsubr
          endchar
        </CharString>
        <CharString name="dvBA">
          21 221 169 54 callsubr
          -274 69 callgsubr
          340 28 callsubr
          -110 -59 -64 -106 -1 hvcurveto
          270 callgsubr
          -62 107 vhcurveto
          40 -98 callgsubr
        </CharString>
        <CharString name="dvBH">
          357 callgsubr
          -181 hlineto
          14 callsubr
          181 291 275 callsubr
          -95 -61 callgsubr
          endchar
        </CharString>
        <CharString name="dvBHA">
          8 321 228 367 callsubr
          -191 vlineto
          -17 8 -6 16 vhcurveto
          69 -107 callsubr
          -232 hlineto
          43 callsubr
          -13 29 callsubr
          -56 vlineto
          -16 8 -8 16 vhcurveto
          13 hlineto
          40 13 -23 -48 131 callgsubr
          endchar
        </CharString>
        <CharString name="dvBH_LA">
          418 275 -26 callgsubr
          458 194 callsubr
          -77 -55 -40 -73 -18 hvcurveto
          -137 hlineto
          14 callsubr
          130 -33 hlineto
          -109 61 -61 109 vhcurveto
          -75 callsubr
          -250 vlineto
          -17 8 -6 16 vhcurveto
          69 -107 callsubr
          endchar
        </CharString>
        <CharString name="dvBH_NA">
          289 275 -34 callsubr
          329 hlineto
          243 callgsubr
          -56 -43 -27 -44 -17 hvcurveto
          -143 hlineto
          14 callsubr
          140 hlineto
          3 -12 5 -11 7 -8 rrcurveto
          -52 callsubr
          -259 vlineto
          -17 8 -6 16 vhcurveto
          69 -107 callsubr
          endchar
        </CharString>
        <CharString name="dvBH_R">
          -224 341 179 callsubr
          -66 hlineto
          -74 callsubr
          -86 -169 rmoveto
          93 callsubr
          115 230 callsubr
        </CharString>
        <CharString name="dvBH_RA">
          8 284 623 206 callgsubr
          -141 vlineto
          -9 -4 -5 -8 vhcurveto
          -132 hlineto
          93 callsubr
          132 hlineto
          5 4 -2 -4 2 hvcurveto
          -245 -236 125 callgsubr
          111 112 rlineto
          -82 vlineto
          -17 8 -6 16 vhcurveto
          69 -107 callsubr
          endchar
        </CharString>
        <CharString name="dvBH_R_YA">
          376 701 -16 callgsubr
          -21 -147 vlineto
          93 callsubr
          149 hlineto
          -251 -242 125 callgsubr
          155 156 rlineto
          -45 35 56 -32 80 hhcurveto
          33 hlineto
          59 38 20 33 19 hvcurveto
          4 -102 hlineto
          -17 8 -6 16 vhcurveto
          69 -107 callsubr
          endchar
        </CharString>
        <CharString name="dvBH_VA">
          292 275 38 callsubr
          -95 -56 -47 -81 -15 hvcurveto
          -135 hlineto
          14 callsubr
          131 hlineto
          -100 5 63 -57 103 hhcurveto
          30 -98 callgsubr
        </CharString>
        <CharString name="dvBH_YA">
          361 686 -16 callgsubr
          -41 -132 vlineto
          14 callsubr
          137 hlineto
          -83 19 66 -73 122 hhcurveto
          33 hlineto
          59 38 20 33 19 hvcurveto
          4 -102 hlineto
          -17 8 -6 16 vhcurveto
          69 -107 callsubr
          endchar
        </CharString>
        <CharString name="dvB_BA">
          323 523 169 54 callsubr
          -348 hmoveto
          -17 callsubr
          642 28 callsubr
          -110 -59 -64 -106 -1 hvcurveto
          -51 -11 callsubr
          51 41 18 35 26 hvcurveto
          -33 30 45 -18 57 hhcurveto
          40 -98 callgsubr
        </CharString>
        <CharString name="dvB_BHA">
          299 416 callsubr
          5 0 4 1 5 vhcurveto
          141 -134 rlineto
          -1 -4 -5 0 -5 hhcurveto
          296 454 206 callgsubr
          -121 139 callsubr
          68 103 callgsubr
          -304 29 callsubr
          -56 vlineto
          -16 8 -53 callsubr
          304 314 callgsubr
          -218 vlineto
          -7 -2 -7 -3 -7 vhcurveto
          -156 148 rlineto
          3 9 12 2 13 121 callsubr
          87 hlineto
          113 51 70 75 6 hvcurveto
          2 0 3 2 vvcurveto
          31 -104 callsubr
          144 -245 hlineto
          -17 8 -6 16 vhcurveto
          69 -107 callsubr
          endchar
        </CharString>
        <CharString name="dvB_BH_RA">
          298 363 callgsubr
          156 -139 rlineto
          -3 -8 -10 -2 -12 hhcurveto
          296 454 206 callgsubr
          -121 139 callsubr
          68 103 callgsubr
          -303 29 callsubr
          -56 vlineto
          -16 8 -53 callsubr
          303 314 callgsubr
          -225 vlineto
          -1 vlineto
          -153 137 254 callsubr
          98 hlineto
          121 37 76 74 1 hvcurveto
          2 vlineto
          31 -104 callsubr
          144 -45 hlineto
          -233 -224 125 callgsubr
          98 99 rlineto
          -62 vlineto
          -17 8 -6 16 vhcurveto
          69 -107 callsubr
          endchar
        </CharString>
        <CharString name="dvB_DA">
          282 222 169 rmoveto
          -17 callsubr
          607 67 callgsubr
          -55 -11 callsubr
          48 38 15 31 26 hvcurveto
          -35 27 44 -19 63 120 callsubr
        </CharString>
        <CharString name="dvB_DHA">
          340 222 176 rmoveto
          13 callgsubr
          42 vlineto
          6 0 5 1 5 vhcurveto
          143 -127 rlineto
          -2 -8 -8 -1 -10 hhcurveto
          348 447 rmoveto
          -21 callgsubr
          17 90 callsubr
          57 vlineto
          15 -8 8 -15 vhcurveto
          -510 -61 callgsubr
          371 324 callgsubr
          -12 vlineto
          -8 -1 -8 -1 -7 vhcurveto
          -148 132 rlineto
          3 9 11 2 13 hhcurveto
          35 hlineto
          16 8 8 15 hvcurveto
          53 -87 callgsubr
          -49 hlineto
          -110 -59 -64 -106 -1 hvcurveto
          -44 234 callgsubr
          -64 107 vhcurveto
          45 hlineto
          52 41 14 30 27 hvcurveto
          -29 25 40 -15 51 hhcurveto
          83 hlineto
          43 31 20 25 12 hvcurveto
          4 -98 hlineto
          -17 8 -6 16 vhcurveto
          69 -107 callsubr
          endchar
        </CharString>
        <CharString name="dvB_DH_VA">
          631 363 callgsubr
          153 -137 rlineto
          -4 -10 -12 -3 -15 hhcurveto
          351 69 callgsubr
          325 201 callsubr
          1 -6 vhcurveto
          -20 -16 -20 -25 -46 -3 callgsubr
          -511 -61 callgsubr
          383 158 callsubr
          -5 vlineto
          0 vlineto
          -156 139 254 callsubr
          50 hlineto
          57 43 18 24 31 hvcurveto
          -27 25 39 -14 49 hhcurveto
          83 hlineto
          51 38 20 25 27 hvcurveto
          -30 29 44 -16 54 hhcurveto
          30 -98 callgsubr
        </CharString>
        <CharString name="dvB_JA">
          403 150 279 rmoveto
          8 1 8 1 7 vhcurveto
          169 -152 rlineto
          -100 24 callsubr
          -156 401 -45 callsubr
          724 139 callgsubr
          -286 hlineto
          -32 callgsubr
          -47 vlineto
          -36 -3 -32 -66 vhcurveto
          -41 hlineto
          -221 198 rlineto
          2 8 307 callsubr
          61 19 callgsubr
          -110 -59 -64 -106 -1 hvcurveto
          -73 109 callgsubr
          287 191 callsubr
          4 107 -3 callsubr
          -294 vlineto
          -17 8 -6 16 vhcurveto
          69 -107 callsubr
          endchar
        </CharString>
        <CharString name="dvB_JHA">
          509 834 294 112 callsubr
          -337 hlineto
          315 callsubr
          21 vlineto
          21 6 11 24 vhcurveto
          182 353 callsubr
          -612 -336 rmoveto
          -17 callsubr
          605 217 callsubr
          -4 -5 -8 vhcurveto
          -122 348 callgsubr
          -32 vlineto
          -1 vlineto
          -1 vlineto
          -66 434 callsubr
          -1 -5 vhcurveto
          -149 133 rlineto
          3 9 11 2 13 121 callsubr
          70 hlineto
          87 54 39 80 17 hvcurveto
          -6 21 24 -3 25 hhcurveto
          97 hlineto
          25 9 -12 -24 hvcurveto
          -67 vlineto
          -27 -10 -11 -24 vhcurveto
          -36 hlineto
          -27 -18 5 32 18 -8 6 -16 hvcurveto
          -67 228 callsubr
          -17 hvcurveto
          -159 36 callgsubr
          48 4 vlineto
          -18 9 20 -10 33 hhcurveto
          32 224 callsubr
          92 vlineto
          6 -1 5 -2 6 vhcurveto
          72 -97 callsubr
          -142 vlineto
          -17 8 -6 16 vhcurveto
          69 -107 callsubr
          endchar
        </CharString>
        <CharString name="dvB_J_YA">
          752 1077 290 -97 callgsubr
          -927 -226 rmoveto
          8 1 8 1 7 vhcurveto
          169 -152 rlineto
          -100 24 callsubr
          -156 401 93 callgsubr
          812 hlineto
          -8 callsubr
          -43 vhcurveto
          28 -17 -30 16 -44 hhcurveto
          -286 hlineto
          -32 callgsubr
          -47 vlineto
          -36 -3 -32 -66 vhcurveto
          -41 hlineto
          -221 198 rlineto
          2 8 307 callsubr
          61 19 callgsubr
          -110 -59 -64 -106 -1 hvcurveto
          -73 109 callgsubr
          287 191 callsubr
          4 73 vlineto
          24 6 -10 -21 hvcurveto
          -22 vlineto
          -101 66 -105 146 vhcurveto
          33 hlineto
          59 38 20 33 19 hvcurveto
          4 -102 hlineto
          -17 8 -6 16 vhcurveto
          69 -107 callsubr
          endchar
        </CharString>
        <CharString name="dvB_JxA">
          403 385 -18 rmoveto
          -82 callgsubr
          65 vlineto
          19 callsubr
          -305 297 rmoveto
          8 1 8 1 7 vhcurveto
          169 -152 rlineto
          -100 24 callsubr
          -156 401 -45 callsubr
          724 139 callgsubr
          -286 hlineto
          -32 callgsubr
          -47 vlineto
          -36 -3 -32 -66 vhcurveto
          -41 hlineto
          -221 198 rlineto
          2 8 307 callsubr
          61 19 callgsubr
          -110 -59 -64 -106 -1 hvcurveto
          -73 109 callgsubr
          287 191 callsubr
          4 107 -3 callsubr
          -294 vlineto
          -17 8 -6 16 vhcurveto
          69 -107 callsubr
          endchar
        </CharString>
        <CharString name="dvB_LA">
          440 222 169 rmoveto
          -17 callsubr
          761 194 callsubr
          -95 -62 -61 -110 hvcurveto
          -31 -11 callsubr
          40 34 11 22 25 hvcurveto
          -50 26 52 -27 72 hhcurveto
          -75 callsubr
          -250 vlineto
          -17 8 -6 16 vhcurveto
          69 -107 callsubr
          endchar
        </CharString>
        <CharString name="dvB_L_YA">
          807 1132 74 callgsubr
          28 64 hvcurveto
          5 189 callgsubr
          47 9 callsubr
          -910 -336 rmoveto
          -17 callsubr
          867 251 callgsubr
          -41 -11 callsubr
          42 35 12 24 26 hvcurveto
          -46 27 50 -24 69 hhcurveto
          -102 callgsubr
          15 15 34 47 4 -39 -14 vhcurveto
          -23 vlineto
          -101 66 -95 146 vhcurveto
          33 hlineto
          59 38 20 33 19 hvcurveto
          4 -102 hlineto
          -17 8 -6 16 vhcurveto
          69 -107 callsubr
          endchar
        </CharString>
        <CharString name="dvB_NA">
          353 298 172 rmoveto
          -2 -9 -9 -1 -11 hhcurveto
          359 callsubr
          62 vlineto
          123 59 rmoveto
          53 callgsubr
          71 hlineto
          72 47 23 53 24 hvcurveto
          -237 211 rlineto
          4 10 12 2 14 hhcurveto
          -230 261 -45 callsubr
          674 hlineto
          243 callgsubr
          -73 -51 -46 -71 374 callsubr
          hvcurveto
          -52 callsubr
          -259 vlineto
          -17 8 -6 16 vhcurveto
          69 -107 callsubr
          endchar
        </CharString>
        <CharString name="dvB_R">
          -197 372 257 rmoveto
          -10 -11 -9 -11 -8 -8 -147 132 rcurveline
          2 7 9 217 callgsubr
          -110 -59 -64 -106 -1 hvcurveto
          -51 vlineto
          -104 68 -54 79 vhcurveto
          4 -4 hlineto
          0 -36 -15 -34 -37 vhcurveto
          -32 -34 -33 callgsubr
          60 62 140 149 rlineto
          10 12 9 7 300 callsubr
          -24 20 211 callsubr
          -221 33 rmoveto
          8 0 8 2 7 vhcurveto
          151 -135 rlineto
          -6 -10 -10 -3 -15 hhcurveto
          359 callsubr
          -157 382 rmoveto
          -74 callsubr
          386 -105 callgsubr
          endchar
        </CharString>
        <CharString name="dvB_RA">
          22 191 79 rmoveto
          0 -36 -15 -34 -37 vhcurveto
          -32 -34 -33 callgsubr
          57 62 61 67 rlineto
          -95 callsubr
          -536 -61 callgsubr
          341 95 callgsubr
          7 9 217 callgsubr
          -110 -59 -64 -106 -1 hvcurveto
          -51 vlineto
          -104 68 -54 79 vhcurveto
          4 hlineto
          -40 207 rmoveto
          8 0 8 2 7 vhcurveto
          153 -137 rlineto
          -5 -10 -12 -2 -15 hhcurveto
          359 callsubr
          endchar
        </CharString>
        <CharString name="dvB_SA">
          412 737 351 -24 callgsubr
          -515 -336 rmoveto
          -17 callsubr
          474 -97 callsubr
          -70 callsubr
          -67 -11 callsubr
          64 48 28 56 24 hvcurveto
          86 -140 -49 callgsubr
          -123 194 rlineto
          249 -97 callsubr
          -196 vlineto
          -17 8 -6 16 vhcurveto
          69 -107 callsubr
          endchar
        </CharString>
        <CharString name="dvB_SHA">
          429 298 600 rmoveto
          15 -81 callsubr
          -280 -61 callgsubr
          280 -89 callsubr
          -76 -374 rmoveto
          358 callgsubr
          -8 -10 -1 -11 hhcurveto
          86 262 156 callsubr
          -61 vlineto
          -7 0 -6 -1 -6 vhcurveto
          -152 135 rlineto
          3 9 11 2 13 hhcurveto
          62 callgsubr
          54 hlineto
          65 48 29 57 24 hvcurveto
          104 -142 197 callsubr
          190 rlineto
          9 callgsubr
          441 146 350 callsubr
          -554 vlineto
          -17 8 -6 16 vhcurveto
          69 -107 callsubr
          endchar
        </CharString>
        <CharString name="dvB_TA">
          307 222 169 rmoveto
          -17 callsubr
          628 236 callsubr
          -26 -11 callsubr
          35 30 8 17 24 hvcurveto
          -62 19 46 -32 80 hhcurveto
          -63 callsubr
          -9 hlineto
          -56 1 -12 18 50 vvcurveto
          91 vlineto
          74 callsubr
          -293 vlineto
          -17 8 -6 16 vhcurveto
          69 -107 callsubr
          endchar
        </CharString>
        <CharString name="dvB_VA">
          313 222 169 rmoveto
          -17 callsubr
          632 201 callsubr
          -1 -5 vhcurveto
          -149 133 rlineto
          3 9 11 2 13 hhcurveto
          62 callgsubr
          51 hlineto
          51 41 18 35 26 hvcurveto
          -33 30 45 -18 57 hhcurveto
          30 -98 callgsubr
        </CharString>
        <CharString name="dvB_YA">
          381 706 290 -97 callgsubr
          -484 -336 rmoveto
          -17 callsubr
          441 142 callgsubr
          -5 0 -5 -4 -2 0 -3 -2 vvcurveto
          -16 -11 callsubr
          59 44 23 47 26 hvcurveto
          -40 35 53 -27 74 hhcurveto
          33 hlineto
          59 38 20 33 19 hvcurveto
          4 -102 hlineto
          -17 8 -6 16 vhcurveto
          69 -107 callsubr
          endchar
        </CharString>
        <CharString name="dvC">
          -150 472 519 275 callsubr
          -478 -61 callgsubr
          323 -440 rmoveto
          91 59 60 73 callgsubr
          -10 -7 -7 -9 -8 hvcurveto
          -21 -18 -21 -33 -53 hhcurveto
          -32 244 callgsubr
          26 233 callsubr
          -21 vlineto
          -108 59 -58 108 vhcurveto
          endchar
        </CharString>
        <CharString name="dvCA">
          89 134 345 rmoveto
          388 callgsubr
          49 hlineto
          56 29 24 24 12 hvcurveto
          4 -103 -42 callgsubr
          71 -92 callgsubr
          -603 -61 callgsubr
          407 85 callgsubr
        </CharString>
        <CharString name="dvCH">
          51 -6 623 56 callgsubr
          398 callgsubr
          126 vlineto
          85 -41 46 -89 vhcurveto
          -41 335 callsubr
          32 hlineto
          16 10 -11 -14 hvcurveto
          -111 116 callgsubr
          343 hlineto
          200 callgsubr
          56 382 callsubr
        </CharString>
        <CharString name="dvCHA">
          51 396 208 rmoveto
          -49 -18 -16 -50 vhcurveto
          -94 hlineto
          -46 -20 12 43 hvcurveto
          16 vlineto
          -23 callsubr
          -402 344 rmoveto
          -16 -8 -7 -16 hvcurveto
          -56 vlineto
          -17 8 -7 16 -1 vhcurveto
          86 -4 hlineto
          -17 -7 -11 -16 -25 vvcurveto
          -86 vlineto
          -35 20 -29 35 -6 vhcurveto
          -4 vlineto
          -40 -13 -15 -36 -43 203 callgsubr
        </CharString>
        <CharString name="dvCH_RA">
          51 168 214 rmoveto
          -23 callsubr
          -71 403 callgsubr
          -174 425 56 callgsubr
          -74 39 -47 63 -18 vhcurveto
          -71 -95 -60 callsubr
          -68 92 rlineto
          73 21 31 65 62 vvcurveto
          39 callsubr
        </CharString>
        <CharString name="dvCH_R_YA">
          566 891 234 73 callsubr
          36 -82 hvcurveto
          -336 335 callsubr
          32 hlineto
          16 10 -11 -14 hvcurveto
          -111 116 callgsubr
          663 -97 callsubr
          -897 118 56 callgsubr
          -77 42 -48 68 -16 vhcurveto
          -72 -97 -60 callsubr
          -72 97 rlineto
          71 22 30 64 61 vvcurveto
          126 vlineto
          9 -1 9 -1 9 vhcurveto
          171 hlineto
          26 11 -9 72 callsubr
        </CharString>
        <CharString name="dvCH_YA">
          558 883 248 73 callsubr
          37 -82 hvcurveto
          -328 335 callsubr
          32 hlineto
          16 10 -11 -14 hvcurveto
          -126 116 callgsubr
          655 -97 callsubr
          -889 118 56 callgsubr
          398 callgsubr
          141 vlineto
          11 -1 10 -1 9 vhcurveto
          163 hlineto
          26 11 -12 -26 -25 -10 -15 7 callgsubr
        </CharString>
        <CharString name="dvC_CA">
          409 -10 callsubr
          727 343 callsubr
          26 18 callsubr
          -256 4 callsubr
          -57 vlineto
          -16 7 -7 17 vhcurveto
          63 352 callsubr
          -36 vvcurveto
          -20 vlineto
          -3 -2 -2 -3 -3 -3 rrcurveto
          -21 -18 -21 -34 -54 hhcurveto
          -32 244 callgsubr
          26 244 callsubr
          10 -92 callsubr
          -240 284 callsubr
          54 hlineto
          57 45 24 29 31 hvcurveto
          -35 28 45 -18 60 hhcurveto
          49 hlineto
          56 29 24 24 12 hvcurveto
          4 -103 -42 callgsubr
          71 -92 callgsubr
          endchar
        </CharString>
        <CharString name="dvC_CHA">
          413 758 208 rmoveto
          -49 -18 -16 -50 vhcurveto
          -94 hlineto
          -46 -20 12 43 hvcurveto
          16 vlineto
          -23 callsubr
          -764 344 -45 callsubr
          448 106 callsubr
          vlineto
          -36 -12 -16 -31 -3 -37 rrcurveto
          -20 -16 -22 -24 -45 hhcurveto
          -48 244 callgsubr
          26 233 callsubr
          -21 vlineto
          -108 59 -58 108 vhcurveto
          70 hlineto
          39 34 11 17 27 hvcurveto
          -46 27 53 -24 70 hhcurveto
          71 callgsubr
        </CharString>
        <CharString name="dvC_CH_VA">
          411 651 -57 rmoveto
          389 callgsubr
          77 hlineto
          17 17 2 4 16 hvcurveto
          -54 vlineto
          -34 -13 -28 -60 vhcurveto
          -135 276 rmoveto
          31 14 16 33 vhcurveto
          22 hlineto
          16 8 8 14 256 callsubr
          -32 hlineto
          -23 -14 13 23 hvcurveto
          66 vlineto
          31 16 18 32 vhcurveto
          138 hlineto
          9 -1 4 -3 -9 vvcurveto
          -60 vlineto
          -12 -2 -11 -3 -10 vhcurveto
          -24 335 callsubr
          32 hlineto
          16 10 -11 -14 hvcurveto
          -65 403 callgsubr
          -549 414 -45 callsubr
          461 -4 hlineto
          -17 -7 -11 -16 -25 vvcurveto
          -81 vlineto
          -35 20 -29 35 -6 vhcurveto
          -4 vlineto
          -35 -11 -16 -29 -3 -35 rrcurveto
          -21 -18 -21 -33 -53 hhcurveto
          -53 244 callgsubr
          26 244 callsubr
          40 -92 callsubr
          -270 284 callsubr
          75 hlineto
          45 37 15 20 29 hvcurveto
          11 -16 14 -13 18 -9 rrcurveto
          -18 -20 -11 -29 -44 vvcurveto
          -88 62 -53 98 vhcurveto
          81 hlineto
          99 59 67 104 hvcurveto
          128 vlineto
          14 24 8 28 29 vvcurveto
          60 vlineto
          55 -17 38 -36 21 vhcurveto
          18 15 13 24 34 vvcurveto
          38 vlineto
          9 5 3 9 vhcurveto
          58 hlineto
          200 callgsubr
          56 382 callsubr
        </CharString>
        <CharString name="dvC_MA">
          361 686 367 263 callsubr
          138 151 callsubr
          -692 306 callsubr
          409 -91 callsubr
          -268 vlineto
          -47 -22 -22 -50 vhcurveto
          -58 244 callgsubr
          11 233 callsubr
          -6 212 callsubr
          98 hlineto
          108 61 58 108 hvcurveto
          7 -104 callsubr
          132 -97 callsubr
          -214 vlineto
          -17 8 -6 16 vhcurveto
          69 -107 callsubr
          endchar
        </CharString>
        <CharString name="dvC_NA">
          378 -10 callsubr
          699 -91 callsubr
          -100 -19 callgsubr
          -154 hlineto
          -71 -50 -44 -67 -3 hvcurveto
          -6 -7 rlineto
          -21 -18 -21 -33 -53 hhcurveto
          -32 hlineto
          -43 -29 12 47 hvcurveto
          10 233 callsubr
          -5 vlineto
          -101 59 -55 108 vhcurveto
          54 hlineto
          48 38 18 24 29 hvcurveto
          3 -10 4 -7 4 -5 252 callgsubr
          -13 34 40 140 callgsubr
          -249 vlineto
          -17 8 -6 16 vhcurveto
          69 -107 callsubr
          endchar
        </CharString>
        <CharString name="dvC_R">
          -146 379 519 275 callsubr
          -385 -61 callgsubr
          347 -465 rmoveto
          123 130 rlineto
          11 12 5 9 8 vvcurveto
          8 -4 4 -7 7 vhcurveto
          -25 23 rlineto
          8 -8 -5 2 -4 hhcurveto
          -8 -6 -4 -9 -7 hvcurveto
          -47 -38 -17 -22 -46 hhcurveto
          -22 244 callgsubr
          26 241 callsubr
          -41 vvcurveto
          -29 vlineto
          -89 60 -54 80 vhcurveto
          8 -4 hlineto
          271 callsubr
          rrcurveto
          endchar
        </CharString>
        <CharString name="dvC_RA">
          89 244 85 rmoveto
          271 callsubr
          22 24 24 25 22 24 rrcurveto
          4 -103 -42 callgsubr
          71 -92 callgsubr
          -603 -61 callgsubr
          407 91 callsubr
          -4 hlineto
          -28 -12 -10 -31 -41 vvcurveto
          -29 vlineto
          -89 60 -54 80 vhcurveto
          8 hlineto
          endchar
        </CharString>
        <CharString name="dvC_YA">
          448 773 290 -97 callgsubr
          -779 17 callsubr
          508 142 callgsubr
          -12 1 -13 2 -12 vhcurveto
          -4 -4 rlineto
          -21 -18 -21 -33 -53 hhcurveto
          -32 244 callgsubr
          26 233 callsubr
          -21 vlineto
          -108 59 -58 108 vhcurveto
          54 hlineto
          62 47 28 32 32 hvcurveto
          -40 34 54 -27 74 hhcurveto
          33 hlineto
          59 38 20 33 19 hvcurveto
          4 -102 hlineto
          -17 8 -6 16 vhcurveto
          69 -107 callsubr
          endchar
        </CharString>
        <CharString name="dvCandrabindu">
          -502 -60 908 13 callsubr
          21 -160 215 callgsubr
          -93 44 callsubr
          endchar
        </CharString>
        <CharString name="dvD">
          -19 187 hmoveto
          -54 callsubr
          -92 135 rlineto
          13 -9 -10 7 -14 hhcurveto
          -50 66 callgsubr
        </CharString>
        <CharString name="dvDA">
          -19 203 66 callgsubr
        </CharString>
        <CharString name="dvDA_mvR">
          -141 313 29 rmoveto
          -105 callsubr
          -122 284 callgsubr
          12 21 hvcurveto
          4 vlineto
          25 13 8 36 vhcurveto
          51 2 callgsubr
          60 -104 callsubr
          41 -105 callgsubr
          -373 298 callsubr
          -7 hlineto
          -97 -41 -44 -80 hvcurveto
          -12 1 callsubr
          -13 vlineto
          -80 54 -53 97 vhcurveto
          endchar
        </CharString>
        <CharString name="dvDD">
          -44 187 -52 rmoveto
          -54 callsubr
          -92 135 rlineto
          13 -9 -10 7 -14 hhcurveto
          -259 675 rmoveto
          -16 -8 -7 -16 hvcurveto
          -58 vlineto
          -17 8 -6 16 vhcurveto
          267 hlineto
          7 4 -6 -8 hvcurveto
          -28 vlineto
          -9 -5 -5 -7 vhcurveto
          -80 hlineto
          -80 -55 -40 -82 hvcurveto
          -26 118 callsubr
          64 12 callsubr
        </CharString>
        <CharString name="dvDDA">
          -44 -6 623 rmoveto
          -16 -8 -7 -16 hvcurveto
          -58 vlineto
          -17 8 -6 16 vhcurveto
          267 hlineto
          7 4 -6 -8 hvcurveto
          -28 vlineto
          -9 -5 -5 -7 vhcurveto
          -80 hlineto
          -80 -55 -40 -82 hvcurveto
          -26 118 callsubr
          64 12 callsubr
        </CharString>
        <CharString name="dvDDH">
          -15 215 -32 rmoveto
          -54 callsubr
          -92 135 rlineto
          13 -9 -10 7 -14 hhcurveto
          18 63 rmoveto
          106 49 53 92 hvcurveto
          -53 callgsubr
          -499 hlineto
          77 callgsubr
          endchar
        </CharString>
        <CharString name="dvDDHA">
          -15 299 31 rmoveto
          106 49 53 92 hvcurveto
          -53 callgsubr
          -499 hlineto
          77 callgsubr
          endchar
        </CharString>
        <CharString name="dvDDH_DDHA">
          246 callgsubr
          -86 vlineto
          -55 15 -44 31 -30 vhcurveto
          -30 -22 -15 -35 -49 155 callsubr
          77 hlineto
          51 callgsubr
          91 vlineto
          47 18 21 45 vhcurveto
          153 hlineto
          29 21 16 34 hvcurveto
          93 -104 callsubr
          57 -77 callsubr
          endchar
        </CharString>
        <CharString name="dvDDH_R">
          -15 326 -131 rmoveto
          13 -9 -10 7 -14 hhcurveto
          -66 hlineto
          -54 callsubr
          -424 889 rmoveto
          96 callgsubr
          -78 30 -57 65 -23 vhcurveto
          -77 -103 -60 callsubr
          -77 105 rlineto
          53 20 119 callgsubr
        </CharString>
        <CharString name="dvDDH_RA">
          246 callgsubr
          -96 vlineto
          -78 29 -57 64 -23 vhcurveto
          -76 -102 225 callsubr
          103 rlineto
          53 21 119 callgsubr
        </CharString>
        <CharString name="dvDDH_YA">
          503 828 248 73 callsubr
          37 -82 hvcurveto
          -187 42 0 callsubr
          380 -97 callsubr
          -834 118 rmoveto
          77 callgsubr
          87 hlineto
          106 49 53 92 hvcurveto
          193 callsubr
          394 hlineto
          26 11 -12 -26 -25 -10 -15 7 callgsubr
        </CharString>
        <CharString name="dvDDHxA">
          -15 308 -42 77 callsubr
          -70 hlineto
          -82 callgsubr
          -9 138 rmoveto
          106 49 53 92 hvcurveto
          -53 callgsubr
          -499 hlineto
          77 callgsubr
          endchar
        </CharString>
        <CharString name="dvDD_DDA">
          -16 -6 623 381 callgsubr
          7 4 -6 -8 hvcurveto
          -18 199 callgsubr
          -98 348 callgsubr
          -16 178 callsubr
          -41 -22 1 31 33 callgsubr
          -4 vlineto
          -43 10 -30 18 -20 vhcurveto
          -14 -15 -8 -23 -31 vvcurveto
          -6 178 callsubr
          -40 -23 0 31 hvcurveto
          5 40 callgsubr
          -7 vlineto
          -106 67 -24 93 vhcurveto
          113 290 callsubr
          34 vlineto
          78 -50 40 -80 vhcurveto
          -123 hlineto
          -20 -11 4 26 25 11 4 20 hvcurveto
          122 290 callsubr
          34 114 callsubr
        </CharString>
        <CharString name="dvDD_DDHA">
          -16 -6 623 381 callgsubr
          7 4 -6 -8 hvcurveto
          -18 199 callgsubr
          -98 348 callgsubr
          -16 178 callsubr
          -40 -23 2 30 33 callgsubr
          -5 vlineto
          -47 13 -31 22 -21 vhcurveto
          -25 -22 -12 -33 -44 155 callsubr
          99 290 callsubr
          34 114 callsubr
        </CharString>
        <CharString name="dvDD_R">
          -44 296 -172 rmoveto
          13 -9 -10 7 -14 hhcurveto
          -66 hlineto
          -54 callsubr
          -394 930 -64 callgsubr
          -74 28 -39 47 -17 vhcurveto
          -79 -106 -60 callsubr
          -78 106 rlineto
          42 19 25 41 56 vvcurveto
          104 callgsubr
          64 12 callsubr
        </CharString>
        <CharString name="dvDD_RA">
          -44 -6 623 -64 callgsubr
          -72 27 -39 45 -18 vhcurveto
          -78 -105 225 callsubr
          103 rlineto
          42 20 25 41 56 vvcurveto
          104 callgsubr
          64 12 callsubr
        </CharString>
        <CharString name="dvDD_VA">
          -16 240 -80 rmoveto
          389 callgsubr
          39 hlineto
          31 28 4 7 25 hvcurveto
          -59 vlineto
          -34 -17 -28 -60 vhcurveto
          -265 703 381 callgsubr
          7 4 -6 -8 hvcurveto
          -18 199 callgsubr
          -98 348 callgsubr
          -16 178 callsubr
          -41 -22 1 31 33 callgsubr
          -5 vlineto
          -54 16 -32 28 -20 vhcurveto
          -20 -19 -12 -31 -46 vvcurveto
          -88 69 -51 98 vhcurveto
          66 hlineto
          99 59 65 104 hvcurveto
          203 114 callsubr
        </CharString>
        <CharString name="dvDD_YA">
          465 790 248 73 callsubr
          37 -82 hvcurveto
          -185 42 0 callsubr
          378 -97 callsubr
          -796 118 -64 callgsubr
          -112 65 -31 95 vhcurveto
          85 290 callsubr
          44 vlineto
          78 -50 40 -80 vhcurveto
          -95 hlineto
          -20 -11 3 30 hvcurveto
          4 vlineto
          28 11 4 20 vhcurveto
          387 hlineto
          26 11 -11 -26 -25 -10 -14 7 callgsubr
        </CharString>
        <CharString name="dvDDxA">
          -44 273 -72 77 callsubr
          -70 hlineto
          -82 callgsubr
          -279 760 rmoveto
          -16 -8 -7 -16 hvcurveto
          -58 vlineto
          -17 8 -6 16 vhcurveto
          267 hlineto
          7 4 -6 -8 hvcurveto
          -28 vlineto
          -9 -5 -5 -7 vhcurveto
          -80 hlineto
          -80 -55 -40 -82 hvcurveto
          -26 118 callsubr
          64 12 callsubr
        </CharString>
        <CharString name="dvDH">
          -202 210 178 rmoveto
          -64 callsubr
          6 -105 callgsubr
          -198 hlineto
          -12 callsubr
          -98 54 -55 97 vhcurveto
          83 hlineto
          91 47 62 73 callgsubr
          -9 -6 -6 -8 -7 hvcurveto
          -20 -17 -18 -36 -55 hhcurveto
          37 445 rmoveto
          198 callgsubr
          150 -105 callgsubr
          endchar
        </CharString>
        <CharString name="dvDHA">
          42 206 519 rmoveto
          15 -78 callgsubr
          57 vlineto
          15 -8 8 -15 vhcurveto
          -212 hlineto
          -74 callsubr
          73 324 callgsubr
          -31 vlineto
          -98 54 -55 97 vhcurveto
          83 hlineto
          43 31 20 25 12 hvcurveto
          4 -98 hlineto
          -17 8 -6 16 vhcurveto
          69 -107 callsubr
          -231 hlineto
          -21 callgsubr
          endchar
        </CharString>
        <CharString name="dvDH_MA">
          300 637 344 -40 callgsubr
          -331 306 callsubr
          48 -91 callsubr
          -277 vlineto
          -40 -13 -10 -42 vhcurveto
          -99 -1 callsubr
          -198 hlineto
          -12 callsubr
          -98 54 -55 97 vhcurveto
          145 hlineto
          76 69 37 89 hvcurveto
          16 -104 callsubr
          132 -97 callsubr
          -191 vlineto
          -17 8 -6 16 vhcurveto
          69 -107 callsubr
          endchar
        </CharString>
        <CharString name="dvDH_NA">
          298 372 -34 callsubr
          241 -91 callsubr
          -100 237 callgsubr
          hvcurveto
          -1 113 callgsubr
          53 -105 callgsubr
          -245 hlineto
          123 callsubr
          36 29 11 16 24 hvcurveto
          2 -4 2 -3 2 -3 252 callgsubr
          -9 33 22 140 callgsubr
          -249 vlineto
          -17 8 -6 16 vhcurveto
          69 -107 callsubr
          endchar
        </CharString>
        <CharString name="dvDH_N_YA">
          622 947 290 -97 callgsubr
          -594 -13 callsubr
          323 -48 callsubr
          -219 375 callsubr
          hvcurveto
          -5 113 callgsubr
          53 -105 callgsubr
          -245 hlineto
          123 callsubr
          37 29 11 17 24 hvcurveto
          2 -3 1 -2 2 -2 252 callgsubr
          -9 33 22 vvcurveto
          34 21 3 33 vhcurveto
          79 -12 hlineto
          -101 66 -105 146 vhcurveto
          33 hlineto
          59 38 20 33 19 hvcurveto
          4 -102 hlineto
          -17 8 -6 16 vhcurveto
          69 -107 callsubr
          endchar
        </CharString>
        <CharString name="dvDH_R">
          -197 302 306 callgsubr
          88 -105 callgsubr
          -75 -563 rmoveto
          105 120 rlineto
          10 12 9 7 300 callsubr
          -18 18 211 callsubr
          -43 -43 -24 -22 -41 236 callgsubr
          13 -105 callgsubr
          -205 219 callsubr
          -25 -11 -33 -37 vhcurveto
          -42 -46 rlineto
          -4 -5 -2 -3 -7 vvcurveto
          -8 6 -6 286 callsubr
          11 10 28 33 43 49 rrcurveto
          endchar
        </CharString>
        <CharString name="dvDH_RA">
          42 43 229 rmoveto
          -101 69 -43 149 callgsubr
          50 60 rcurveline
          4 -98 hlineto
          -17 8 -6 16 vhcurveto
          69 -107 callsubr
          -231 hlineto
          -21 callgsubr
          17 90 callsubr
          57 vlineto
          15 -8 8 -15 vhcurveto
          -212 hlineto
          -74 callsubr
          73 324 callgsubr
          endchar
        </CharString>
        <CharString name="dvDH_VA">
          323 306 38 callsubr
          -110 -59 -64 -106 -1 hvcurveto
          -47 vlineto
          -12 vlineto
          -20 -16 -19 -31 -51 -3 callgsubr
          -198 hlineto
          -12 callsubr
          -98 54 -55 97 vhcurveto
          83 hlineto
          53 38 21 27 27 hvcurveto
          -32 30 44 -17 56 hhcurveto
          30 -98 callgsubr
        </CharString>
        <CharString name="dvDH_YA">
          392 717 -16 callgsubr
          -93 vlineto
          -14 1 -15 3 -14 vhcurveto
          -1 -1 rlineto
          -20 -17 -18 -36 -55 -3 callgsubr
          -198 hlineto
          -12 callsubr
          -98 54 -55 97 vhcurveto
          83 hlineto
          62 42 29 33 28 hvcurveto
          -37 35 52 -25 71 hhcurveto
          33 hlineto
          59 38 20 33 19 hvcurveto
          4 -102 hlineto
          -17 8 -6 16 vhcurveto
          69 -107 callsubr
          endchar
        </CharString>
        <CharString name="dvD_BA">
          -19 255 344 callgsubr
          -8 vlineto
          -104 87 rlineto
          8 -141 rmoveto
          -54 -19 17 35 hvcurveto
          33 vlineto
          9 1 8 2 7 vhcurveto
          126 -106 rlineto
          -2 340 callgsubr
          -256 703 2 callsubr
          415 callsubr
          -37 vlineto
          -88 74 -46 98 vhcurveto
          61 hlineto
          99 62 60 104 hvcurveto
          270 -30 callgsubr
        </CharString>
        <CharString name="dvD_BHA">
          29 168 callsubr
          331 67 callgsubr
          -9 429 callgsubr
          46 hlineto
          33 21 13 18 9 hvcurveto
          4 -181 -123 38 callgsubr
          5 vlineto
          87 -2 -50 53 -104 hhcurveto
          -7 29 callsubr
          -56 vlineto
          -16 8 -53 callsubr
          7 hlineto
          33 13 -12 -32 hvcurveto
          -169 vlineto
          -95 callgsubr
          62 hlineto
          16 8 6 17 hvcurveto
          42 -104 callsubr
          123 -103 -31 callsubr
          514 vlineto
          17 -8 6 -16 vhcurveto
          -67 228 callsubr
          -17 hvcurveto
          -7 vlineto
          -32 -18 -16 -27 vhcurveto
          -49 117 callgsubr
          6 vlineto
          47 18 21 45 vhcurveto
          156 hlineto
          29 21 16 34 hvcurveto
          97 -104 callsubr
          73 -77 callsubr
          endchar
        </CharString>
        <CharString name="dvD_B_RA">
          -19 255 65 rmoveto
          33 26 9 18 9 hvcurveto
          4 -110 hlineto
          -7 -1 -7 -1 -6 vhcurveto
          -120 102 rlineto
          1 3 3 0 3 hhcurveto
          -46 -56 rmoveto
          4 0 3 1 3 vhcurveto
          114 -97 rlineto
          -1 -5 -7 -1 -7 hhcurveto
          -23 hlineto
          -54 -19 17 35 hvcurveto
          -174 651 2 callsubr
          -55 14 -43 31 -28 vhcurveto
          -19 -21 -13 -31 -45 vvcurveto
          -47 vlineto
          -83 66 -44 90 -5 vhcurveto
          -82 -73 305 callsubr
          10 5 11 11 hvcurveto
          128 129 rlineto
          0 vlineto
          27 28 15 40 51 vvcurveto
          270 -30 callgsubr
        </CharString>
        <CharString name="dvD_DA">
          -11 111 243 rmoveto
          -37 -12 -21 -33 -56 vvcurveto
          -9 vlineto
          -92 53 -41 100 vhcurveto
          56 hlineto
          33 20 10 80 callsubr
          218 vlineto
          17 -8 6 -16 vhcurveto
          -67 228 callsubr
          -17 hvcurveto
          -34 vlineto
          -32 -18 -10 -27 vhcurveto
          -52 hlineto
          -51 -9 10 31 hvcurveto
          9 vlineto
          32 14 10 32 vhcurveto
          46 281 callsubr
          16 -80 callsubr
          -50 hlineto
          -35 -11 9 26 -1 hvcurveto
          4 vlineto
          31 13 7 36 vhcurveto
          134 2 callgsubr
          76 -104 callsubr
          77 -105 callgsubr
          -503 hlineto
          -16 -8 -8 -14 hvcurveto
          -59 369 callgsubr
          285 -97 callsubr
          -21 -19 callgsubr
          -83 hlineto
          -102 -44 -44 -82 hvcurveto
          -4 vlineto
          1 -53 25 -31 35 -9 rrcurveto
          endchar
        </CharString>
        <CharString name="dvD_DHA">
          179 168 callsubr
          504 89 callsubr
          -47 -57 -109 hvcurveto
          397 callgsubr
          -55 hlineto
          273 callgsubr
          10 vlineto
          26 13 10 18 vhcurveto
          9 -89 callsubr
          53 vlineto
          15 -81 callsubr
          -5 229 callgsubr
          -89 -31 callsubr
          257 -30 callgsubr
        </CharString>
        <CharString name="dvD_GA">
          -19 140 callsubr
          4 vlineto
          33 21 13 18 9 hvcurveto
          4 -139 -31 callsubr
          307 -30 callgsubr
        </CharString>
        <CharString name="dvD_GHA">
          179 204 38 rmoveto
          273 callgsubr
          20 vlineto
          26 13 10 18 vhcurveto
          66 hlineto
          -1 -8 0 -8 -9 vvcurveto
          397 callgsubr
          -265 585 12 callgsubr
          504 -18 callgsubr
          -97 hlineto
          -60 -41 -17 -34 -25 hvcurveto
          -91 229 callgsubr
          -79 hlineto
          393 callsubr
          67 hlineto
          16 8 6 17 hvcurveto
          247 -30 callgsubr
        </CharString>
        <CharString name="dvD_G_RA">
          1 140 callsubr
          24 vlineto
          33 21 13 18 9 hvcurveto
          4 -92 hlineto
          -225 -217 125 callgsubr
          90 91 rlineto
          -68 36 callgsubr
          467 vlineto
          17 -8 6 -16 vhcurveto
          -67 228 callsubr
          -17 hvcurveto
          -47 vlineto
          -32 -18 -16 -27 vhcurveto
          -66 117 callgsubr
          63 vlineto
          47 18 21 45 vhcurveto
          156 hlineto
          29 21 16 34 hvcurveto
          97 -104 callsubr
          70 -77 callsubr
          endchar
        </CharString>
        <CharString name="dvD_MA">
          221 538 198 112 callsubr
          -97 38 callgsubr
          81 vlineto
          17 -8 6 -16 vhcurveto
          -67 228 callsubr
          -17 hvcurveto
          -7 vlineto
          -32 -18 -16 -27 vhcurveto
          -31 117 callgsubr
          4 vlineto
          47 18 21 45 vhcurveto
          131 hlineto
          29 21 16 34 hvcurveto
          97 -104 callsubr
          112 -97 callsubr
          -544 387 callgsubr
          281 -18 callgsubr
          -72 hlineto
          240 callsubr
          -7 429 callgsubr
          28 hlineto
          33 21 13 18 9 hvcurveto
          4 -139 -31 callsubr
          56 -104 callsubr
          97 -97 callsubr
          -109 vlineto
          -26 callsubr
          546 -106 callsubr
          endchar
        </CharString>
        <CharString name="dvD_NA">
          479 439 -56 rmoveto
          13 -9 -10 7 -14 hhcurveto
          -66 hlineto
          -54 callsubr
          -537 814 2 callsubr
          -103 51 -66 116 vhcurveto
          43 86 callgsubr
          237 vlineto
          17 -8 6 -16 vhcurveto
          -67 228 callsubr
          -17 hvcurveto
          -47 vlineto
          -32 -18 -16 -27 vhcurveto
          -46 117 callgsubr
          63 vlineto
          47 18 21 45 vhcurveto
          156 hlineto
          29 21 16 34 hvcurveto
          97 -104 callsubr
          355 hlineto
          243 callgsubr
          -73 -51 -46 -71 374 callsubr
          hvcurveto
          -52 callsubr
          -259 vlineto
          -17 8 -6 16 vhcurveto
          69 -107 callsubr
          endchar
        </CharString>
        <CharString name="dvD_R">
          -19 356 -72 rmoveto
          13 -9 -10 7 -14 hhcurveto
          -66 hlineto
          -54 callsubr
          -454 830 2 callsubr
          -23 callgsubr
        </CharString>
        <CharString name="dvD_RA">
          -19 242 callgsubr
          -23 callgsubr
        </CharString>
        <CharString name="dvD_VA">
          -19 250 344 callgsubr
          -34 -12 -28 -60 vhcurveto
          -9 401 callsubr
          -225 562 2 callsubr
          -56 15 -45 32 -29 vhcurveto
          -23 -20 -16 -34 -49 vvcurveto
          -25 vlineto
          -100 71 -52 98 vhcurveto
          51 hlineto
          111 53 57 113 hvcurveto
          270 -30 callgsubr
        </CharString>
        <CharString name="dvD_YA">
          57 176 483 rmoveto
          -95 -41 -44 -80 hvcurveto
          -12 1 callsubr
          -13 vlineto
          -80 54 -50 97 vhcurveto
          101 hlineto
          43 31 20 25 12 hvcurveto
          4 -54 hlineto
          -17 8 -6 16 vhcurveto
          69 -107 callsubr
          -571 298 callsubr
          70 -93 rmoveto
          33 26 15 40 hvcurveto
          60 -104 callsubr
          44 -97 callsubr
          -283 vlineto
          -50 -21 -39 -78 vhcurveto
          -92 284 callgsubr
          11 20 hvcurveto
          4 vlineto
          25 13 10 36 vhcurveto
          endchar
        </CharString>
        <CharString name="dvE">
          18 -6 623 79 callgsubr
        </CharString>
        <CharString name="dvEcandra">
          16 314 698 rmoveto
          77 41 48 80 hvcurveto
          8 vlineto
          22 -9 12 -20 vhcurveto
          -49 hlineto
          -16 -10 329 callgsubr
          -10 -11 -26 vhcurveto
          -63 44 callsubr
          -213 -75 79 callgsubr
        </CharString>
        <CharString name="dvEight">
          20 354 166 rmoveto
          -44 -17 -18 -45 vhcurveto
          -62 hlineto
          -45 -17 18 44 hvcurveto
          44 vlineto
          44 17 21 45 vhcurveto
          62 hlineto
          45 17 -21 -44 hvcurveto
          -186 267 rmoveto
          44 17 18 45 vhcurveto
          62 hlineto
          45 17 -18 -44 hvcurveto
          -40 vlineto
          -43 -17 -22 -45 vhcurveto
          -62 hlineto
          -45 -17 22 43 hvcurveto
          306 46 rmoveto
          103 -60 57 -102 vhcurveto
          -101 hlineto
          -103 -60 -57 -103 hvcurveto
          -37 vlineto
          -63 23 -39 43 -21 vhcurveto
          -43 -20 -23 -40 -63 vvcurveto
          -40 vlineto
          -103 60 -57 103 vhcurveto
          101 hlineto
          102 60 57 103 hvcurveto
          39 vlineto
          64 -23 39 -43 21 vhcurveto
          43 21 23 38 64 vvcurveto
          endchar
        </CharString>
        <CharString name="dvEyelash">
          -310 198 179 callsubr
          -204 -61 callgsubr
          168 -247 rmoveto
          99 47 62 73 callgsubr
          -8 -6 -4 -7 -6 hvcurveto
          -20 -18 -16 -39 -58 hhcurveto
          -63 147 callgsubr
          endchar
        </CharString>
        <CharString name="dvEyelash_HA">
          136 295 callgsubr
          463 -91 callsubr
          152 callsubr
          -73 -50 -22 -63 -14 hvcurveto
          -40 147 callgsubr
          51 hlineto
          9 -15 13 -10 15 -7 rrcurveto
          15 callsubr
          endchar
        </CharString>
        <CharString name="dvEyelash_YA">
          246 571 98 callgsubr
          -75 -36 35 58 hvcurveto
          9 189 callgsubr
          42 9 callsubr
          -577 81 callgsubr
          306 hlineto
          87 callgsubr
          -32 264 callsubr
          -113 147 callgsubr
          20 -11 hlineto
          -101 66 -88 146 vhcurveto
          33 hlineto
          59 38 20 33 19 hvcurveto
          4 -102 hlineto
          -17 8 -6 16 vhcurveto
          69 -107 callsubr
          endchar
        </CharString>
        <CharString name="dvFive">
          -7 335 255 rmoveto
          -93 vlineto
          -43 -20 -19 -45 vhcurveto
          -49 hlineto
          -44 -17 19 43 hvcurveto
          21 vlineto
          15 -7 5 -14 vhcurveto
          -79 hlineto
          -14 -6 -5 -15 hvcurveto
          -22 vlineto
          -103 60 -58 102 vhcurveto
          87 hlineto
          103 60 58 103 hvcurveto
          112 vlineto
          102 -53 51 -101 vhcurveto
          -46 hlineto
          -44 -29 -19 -31 -11 hvcurveto
          155 246 vlineto
          15 5 7 13 hvcurveto
          72 vlineto
          13 -5 7 -15 vhcurveto
          -346 hlineto
          -15 234 callsubr
          -315 vlineto
          -15 7 -5 13 vhcurveto
          78 hlineto
          33 -14 43 51 hhcurveto
          50 hlineto
          52 17 -17 -58 hvcurveto
          endchar
        </CharString>
        <CharString name="dvFour">
          8 400 hmoveto
          13 5 4 16 hvcurveto
          98 73 vlineto
          14 5 8 14 hvcurveto
          64 vlineto
          13 -5 5 -14 vhcurveto
          -73 386 hlineto
          22 -14 13 -21 vhcurveto
          -107 hlineto
          -22 -9 -7 -22 -11 hvcurveto
          -205 -377 rlineto
          -7 -13 -3 -13 -21 vvcurveto
          -37 vlineto
          -22 14 -13 21 vhcurveto
          252 -98 hlineto
          -15 7 -5 13 vhcurveto
          -20 542 rmoveto
          -320 -171 vlineto
          endchar
        </CharString>
        <CharString name="dvG">
          -217 291 179 callsubr
          -297 hlineto
          -96 callgsubr
          endchar
        </CharString>
        <CharString name="dvGA">
          21 -6 623 166 callgsubr
          -482 vlineto
          -17 8 -6 16 vhcurveto
          69 -107 callsubr
          endchar
        </CharString>
        <CharString name="dvGH">
          -203 210 178 rmoveto
          -64 callsubr
          223 -105 callgsubr
          -415 hlineto
          -12 callsubr
          -98 54 -55 97 vhcurveto
          83 hlineto
          91 47 62 73 callgsubr
          -9 -6 -5 -8 -7 hvcurveto
          -20 -17 -18 -37 -55 hhcurveto
          endchar
        </CharString>
        <CharString name="dvGHA">
          39 352 519 367 callsubr
          -238 vlineto
          -50 -21 -38 -78 -1 vhcurveto
          52 callgsubr
          -92 -179 rmoveto
          159 callsubr
          -28 vlineto
          -98 54 -55 97 vhcurveto
          83 hlineto
          43 31 20 25 12 hvcurveto
          4 -94 hlineto
          -17 8 -6 16 vhcurveto
          69 -107 callsubr
          -553 hlineto
          196 callgsubr
          -48 vlineto
          -42 16 -26 38 -13 vhcurveto
          endchar
        </CharString>
        <CharString name="dvGH_MA">
          313 638 367 263 callsubr
          138 151 callsubr
          -428 -327 rmoveto
          -64 callsubr
          169 -91 callsubr
          -269 vlineto
          -45 -13 -13 -42 vhcurveto
          -316 445 rmoveto
          -12 callsubr
          -98 54 -55 97 vhcurveto
          138 hlineto
          97 56 55 98 hvcurveto
          12 -104 callsubr
          132 -97 callsubr
          -214 vlineto
          -17 8 -6 16 vhcurveto
          69 -107 callsubr
          endchar
        </CharString>
        <CharString name="dvGH_NA">
          298 623 405 rmoveto
          198 callsubr
          hvcurveto
          -1 113 callgsubr
          427 -91 callsubr
          -629 118 rmoveto
          123 callsubr
          36 29 11 16 24 hvcurveto
          2 -4 2 -3 2 -3 252 callgsubr
          -9 33 22 140 callgsubr
          -249 vlineto
          -17 8 -6 16 vhcurveto
          69 -107 callsubr
          endchar
        </CharString>
        <CharString name="dvGH_R">
          -214 314 60 rmoveto
          105 121 rlineto
          10 13 6 8 8 vvcurveto
          8 -4 4 -7 7 vhcurveto
          -21 21 rlineto
          8 -8 -5 2 -4 hhcurveto
          -8 -6 -4 -9 -7 hvcurveto
          -47 -38 -19 -22 -46 hhcurveto
          -52 -39 callsubr
          264 -105 callgsubr
          -456 219 callsubr
          -24 -12 -34 -36 vhcurveto
          -43 -47 8 callsubr
          8 4 6 6 hvcurveto
          11 9 31 38 39 45 rrcurveto
          endchar
        </CharString>
        <CharString name="dvGH_RA">
          39 352 519 367 callsubr
          -238 vlineto
          -50 -21 -38 -78 -1 vhcurveto
          52 callgsubr
          -146 -294 rmoveto
          -95 72 -45 149 callgsubr
          47 56 rcurveline
          4 -94 hlineto
          -17 8 -6 16 vhcurveto
          69 -107 callsubr
          -553 hlineto
          -5 callgsubr
          endchar
        </CharString>
        <CharString name="dvGH_YA">
          383 708 290 -97 callgsubr
          -498 -327 rmoveto
          -64 callsubr
          251 142 callgsubr
          -17 2 -17 4 -17 vhcurveto
          -20 -16 -20 -29 -48 hhcurveto
          -271 445 rmoveto
          -12 callsubr
          -98 54 -55 97 vhcurveto
          83 hlineto
          59 41 26 31 28 hvcurveto
          -34 34 51 -23 68 hhcurveto
          33 hlineto
          59 38 20 33 19 hvcurveto
          4 -102 hlineto
          -17 8 -6 16 vhcurveto
          69 -107 callsubr
          endchar
        </CharString>
        <CharString name="dvG_BA">
          311 511 169 54 callsubr
          -564 454 rmoveto
          -96 callgsubr
          371 28 callsubr
          -110 -59 -64 -106 -1 hvcurveto
          270 callgsubr
          -62 107 vhcurveto
          40 -98 callgsubr
        </CharString>
        <CharString name="dvG_BHA">
          293 569 623 rmoveto
          43 callsubr
          -298 hlineto
          -96 callgsubr
          39 hlineto
          40 13 -23 -48 131 callgsubr
          132 -97 callsubr
          -191 vlineto
          -17 8 -6 16 vhcurveto
          69 -107 callsubr
          endchar
        </CharString>
        <CharString name="dvG_BH_YA">
          663 988 290 -97 callgsubr
          -405 17 callsubr
          134 245 callsubr
          -5 hlineto
          -6 hlineto
          -297 hlineto
          -96 callgsubr
          38 hlineto
          6 hlineto
          5 hlineto
          99 callgsubr
          131 hlineto
          -83 19 66 -73 122 hhcurveto
          33 hlineto
          59 38 20 33 19 hvcurveto
          4 -102 hlineto
          -17 8 -6 16 vhcurveto
          69 -107 callsubr
          endchar
        </CharString>
        <CharString name="dvG_DA">
          261 5 callsubr
          327 hlineto
          7 4 -5 -8 hvcurveto
          -31 vlineto
          -8 -4 -5 -7 vhcurveto
          -97 hlineto
          100 callsubr
          endchar
        </CharString>
        <CharString name="dvG_DHA">
          327 604 623 rmoveto
          -21 callgsubr
          17 90 callsubr
          57 vlineto
          15 -8 8 -15 vhcurveto
          -497 hlineto
          -96 callgsubr
          99 324 callgsubr
          -31 vlineto
          -98 54 -55 97 vhcurveto
          83 hlineto
          43 31 20 25 12 hvcurveto
          4 -98 hlineto
          -17 8 -6 16 vhcurveto
          69 -107 callsubr
          endchar
        </CharString>
        <CharString name="dvG_DH_VA">
          613 596 38 callsubr
          -110 -59 -64 -106 -1 hvcurveto
          -47 vlineto
          -12 vlineto
          -20 -16 -19 -31 -51 -3 callgsubr
          -488 hlineto
          -96 callgsubr
          101 178 callgsubr
          53 38 21 27 27 hvcurveto
          -32 30 44 -17 56 hhcurveto
          30 -98 callgsubr
        </CharString>
        <CharString name="dvG_DH_YA">
          682 1007 -16 callgsubr
          -93 vlineto
          -14 1 -15 3 -14 vhcurveto
          -1 -1 rlineto
          -20 -17 -18 -36 -55 -3 callgsubr
          -488 hlineto
          -96 callgsubr
          101 178 callgsubr
          62 42 29 33 28 hvcurveto
          -37 35 52 -25 71 hhcurveto
          33 hlineto
          59 38 20 33 19 hvcurveto
          4 -102 hlineto
          -17 8 -6 16 vhcurveto
          69 -107 callsubr
          endchar
        </CharString>
</ttFont>
